<?xml version="1.0" encoding="utf-8"?>
<!-- Generator: Adobe Illustrator 21.0.0, SVG Export Plug-In . SVG Version: 6.00 Build 0)  -->
<svg version="1.1" id="Layer_1" xmlns="http://www.w3.org/2000/svg" xmlns:xlink="http://www.w3.org/1999/xlink" x="0px" y="0px"
	 viewBox="0 0 996 161" style="enable-background:new 0 0 996 161;" xml:space="preserve">
<style type="text/css">
	.st0{fill:#FCAF17;}
</style>
<g>
	<g>
		<path d="M182.9,141.4L204.6,18h81.9c20.9,0,41.4,5.9,37.2,29.6c-3.4,19.1-19.1,27-37.3,29.4c22.7,1.8,36.6,9.7,32.7,31.7
			c-4,22.5-23.8,32.6-50,32.6H182.9z M249.8,122c7.9,0,14.8-4.4,17.1-17.9c2.3-12.8-3.5-17.6-10.9-17.6h-13l-6.3,35.5H249.8z
			 M256.8,71c6.4,0,15.6-2.6,18.1-17.1c2.6-14.8-3.9-16.8-12.2-16.8h-11l-6,33.9H256.8z"/>
		<path d="M324.4,141.4L346.2,18h50.5l-21.7,123.3H324.4z"/>
		<path d="M474.9,141.4l-21.2-54.3l-9.6,54.3h-50.5L415.4,18h50.5l-9.1,51.6l44-51.6h43.1l-48.8,54.8l32.6,68.6H474.9z"/>
		<path d="M536.2,141.4L558,18h101.6l-3.4,19.1h-53.8l-5.5,31.4h48.3l-3.4,19.2h-48.3l-6,34.2h53.8l-3.4,19.4H536.2z"/>
		<path d="M654.5,141.4L676.2,18h81.9c20.9,0,41.4,5.9,37.2,29.6c-3.4,19.1-19.1,27-37.3,29.4c22.7,1.8,36.6,9.7,32.7,31.7
			c-4,22.5-23.8,32.6-50,32.6H654.5z M721.4,122c7.9,0,14.8-4.4,17.1-17.9c2.3-12.8-3.5-17.6-10.9-17.6h-13l-6.3,35.5H721.4z
			 M728.4,71c6.4,0,15.6-2.6,18.1-17.1c2.6-14.8-4-16.8-12.2-16.8h-11l-6,33.9H728.4z"/>
		<path d="M796.1,141.4L817.8,18h50.5l-21.7,123.3H796.1z"/>
		<path d="M860.5,141.4l3.1-17.8l67.5-86.3h-47l3.4-19.2H988l-2.9,16.3L916.9,122h54.3l-3.4,19.4H860.5z"/>
	</g>
	<path class="st0" d="M62.7,8.9c1.1,0.4,2.2,0.7,3.3,1.1c2.4,0.8,4.9,1.8,7.5,2.9c1.3,0.6,2.7,1.2,4.1,2c0.7,0.4,1.5,0.8,2.1,1.2
		c0.7,0.4,1.4,0.9,2.2,1.3c1.4,1,2.9,2.1,4.3,3.5l0.3,0.3l0.3,0.3l0.6,0.6l0.4,0.5l0.1,0.1c0,0.1,0-0.1,0.1,0.2l0.1,0.1l0.2,0.3
		c0.6,0.9,1.2,1.9,1.7,3.1c0.2,0.6,0.4,1.2,0.6,1.9c0.1,0.3,0.1,0.8,0.2,1.2l0.1,0.7c0,0.1,0-0.1,0,0.3l0,0.1l0,0.3l0,0.5
		c0,0.4-0.1,0.7-0.1,1.1c-0.1,0.3-0.1,0.7-0.2,1c-0.1,0.3-0.2,0.7-0.3,1c-0.8,2.6-2.3,4.7-3.8,6.5c-0.8,0.9-1.5,1.7-2.4,2.5
		l-0.5,0.5l-0.7,0.6c-0.4,0.4-0.8,0.7-1.3,1.1c-1.7,1.4-3.4,2.6-5.2,3.8c-10.3,5.8-4.5,9.6-0.3,10.8c2.5,0.7,5,1.4,7.4,2.3
		c0.6,0.2,1.2,0.4,1.9,0.7l1.9,0.7l1.6,0.6l2,0.9l3.3,1.5l0.8,0.4c0,0,0.4,0.2,0.3,0.2l0.1,0.1l0.2,0.1l0.4,0.2l1.7,0.9l1.7,0.9
		l0.9,0.5l0.9,0.5l1.8,1l1.6,0.9l0.8,0.4l0.4,0.2l0.2,0.1c-0.1-0.1,0.3,0.2,0.3,0.2l0.1,0.1l1.6,1c1.1,0.7,2.2,1.4,3.4,2.3
		c0.6,0.4,1.2,0.8,1.8,1.3c0.6,0.4,1.2,0.9,1.8,1.4c0.6,0.5,1.3,1.1,1.9,1.7l1.5,1.4l0.3,0.3l0.1,0.1c0.5,0.5,0.2,0.2,0.3,0.3
		l0.2,0.2l0.7,0.6l0.7,0.7l0.7,0.8c1,1,2.1,2.2,3.1,3.6c1.1,1.4,2.2,3,3.1,4.7c0.5,0.9,1,1.8,1.4,2.8l0.3,0.7
		c0.1,0.2,0.2,0.5,0.3,0.8l0.3,0.9l0.3,0.9l0.3,0.8l0.3,1.2l0.2,0.8c0.2,1.1,0.5,2.2,0.6,3.3c0.3,2.2,0.4,4.3,0.3,6.3
		c-0.1,2-0.3,3.9-0.6,5.7c-0.3,1.8-0.7,3.5-1.1,5c-0.9,3.2-2,6-3.1,8.7c-2.3,5.3-5,9.8-7.6,13.9c-0.7,1-1.3,2-2,3
		c-0.7,1-1.3,1.9-2.1,3c-0.1,0.2-0.3,0.4-0.4,0.6h21.6c9.6,0,17.4-7.8,17.4-17.4V24.8c0-9.7-7.9-17.5-17.5-17.5H57.4
		c0.7,0.2,1.4,0.4,2.2,0.6C60.6,8.2,61.6,8.6,62.7,8.9z"/>
	<path class="st0" d="M89.8,110.3c4.1-13.4-14.2-25.2-36.5-34.5c-17.7-7.4-13.8-18-13.7-18.5c0.1-0.2,0.1-0.4,0.2-0.6l0.2-0.6
		c0.7-1.5,1.5-2.6,2.2-3.4c0.7-0.9,1.5-1.5,2.1-2.1c0.7-0.6,1.3-1,1.9-1.5c0.6-0.4,1.2-0.8,1.8-1.1l1-0.5l0.7-0.4
		c0.5-0.3,1.1-0.5,1.6-0.8l0.9-0.4l0.8-0.4c2.1-0.9,4.2-1.8,6.1-2.5c1.9-0.8,3.9-1.5,5.7-2.3c1.8-0.7,3.6-1.5,5.3-2.2
		c1.7-0.8,3.3-1.5,4.8-2.3c0.4-0.2,0.7-0.4,1.1-0.6l0.5-0.3l0.6-0.4c0.6-0.4,1.2-0.8,1.8-1.3c1.1-0.9,1.9-1.8,2.4-2.5
		c0-0.1,0.1-0.2,0.2-0.3c0-0.1,0.1-0.2,0.1-0.3l0.1-0.3l0-0.1l0-0.1l0,0c0,0.4,0,0.1,0,0.1l0-0.6c0,0,0,0,0-0.1c0-0.2,0-0.4,0-0.7
		c-0.1-0.5-0.2-1-0.5-1.5l-0.1-0.2l0-0.1c0.1,0.2,0,0,0,0L81.4,27l-0.3-0.5l-0.2-0.4l-0.1-0.2l-0.1-0.2c-0.8-1.1-1.7-2.2-2.8-3.2
		c-0.5-0.5-1.1-1-1.6-1.4c-0.6-0.5-1.1-0.9-1.7-1.4c-1.1-0.9-2.3-1.7-3.4-2.5c-2.3-1.5-4.5-2.9-6.6-4c-1.1-0.6-2.1-1.2-3.1-1.7
		c-1-0.5-1.9-1-2.8-1.5c-2.2-1.1-4-2-5.6-2.8H26.7C17,7.3,9,15.2,9,25v109.6c0,9.6,7.8,17.5,17.5,17.5h9.2
		C49,145.9,84.4,128,89.8,110.3z"/>
</g>
</svg>
