<svg id="Layer_1" data-name="Layer 1" xmlns="http://www.w3.org/2000/svg" viewBox="0 0 162.73 65.3"><defs><style>.cls-1{fill:#c6dc91;}</style></defs><title>logo</title><path class="cls-1" d="M78.38,31.86a0.7,0.7,0,0,1,.71-0.71h2.59a0.72,0.72,0,0,1,.7.71V39.8l7.41-8.36a0.7,0.7,0,0,1,.56-0.29h2.94a0.63,0.63,0,0,1,.47,1.06l-7.68,8.65,8.23,9.86a0.64,0.64,0,0,1-.53,1H90.58a0.62,0.62,0,0,1-.53-0.21l-7.68-9.47v9a0.71,0.71,0,0,1-.7.71H79.08A0.69,0.69,0,0,1,78.38,51V31.86Z"/><path class="cls-1" d="M101.47,51l9.15-19.8a0.53,0.53,0,0,1,.5-0.32h0.29a0.5,0.5,0,0,1,.5.32L121,51a0.52,0.52,0,0,1-.5.77h-2.56a0.84,0.84,0,0,1-.85-0.59L115.62,48h-8.8l-1.44,3.18a0.88,0.88,0,0,1-.85.59H102A0.52,0.52,0,0,1,101.47,51Zm12.71-6.26-2.94-6.47h-0.09l-2.88,6.47h5.91Z"/><path class="cls-1" d="M130.15,31.71a0.58,0.58,0,0,1,.56-0.56h2.74a0.58,0.58,0,0,1,.56.56V51.18a0.58,0.58,0,0,1-.56.56h-2.74a0.58,0.58,0,0,1-.56-0.56V31.71Z"/><path class="cls-1" d="M143.18,51l9.15-19.8a0.53,0.53,0,0,1,.5-0.32h0.29a0.5,0.5,0,0,1,.5.32L162.69,51a0.52,0.52,0,0,1-.5.77h-2.56a0.85,0.85,0,0,1-.85-0.59L157.34,48h-8.8l-1.44,3.18a0.88,0.88,0,0,1-.85.59h-2.56A0.52,0.52,0,0,1,143.18,51Zm12.71-6.26L153,38.24h-0.09L150,44.71h5.91Z"/><path class="cls-1" d="M41.33,25.9c0-4.16-6.07-14.12-7.28-16.07L32.6,7.51,31.16,9.83c-1.22,2-7.28,11.91-7.28,16.07a8.74,8.74,0,0,0,7,8.56V65.3h3.4V34.46A8.74,8.74,0,0,0,41.33,25.9Zm-14.05,0c0-2,2.86-7.63,5.33-11.87,2.47,4.24,5.33,9.82,5.33,11.87A5.33,5.33,0,1,1,27.28,25.9Z"/><path class="cls-1" d="M32.6,0a32.59,32.59,0,0,0-5.78,64.67v-18h0c0.07-1.45.13-7.89-3.87-11.88C19.43,31.33,14,31,11.82,31c-0.66,0-1,0-1,0l-1.44.12L9.21,32.54c0,0.31-.57,7.74,3.85,12.17,3.15,3.15,7.85,3.78,10.35,3.87V60.36a29.24,29.24,0,1,1,17.9.13V48.59c2.5-.1,7.21-0.72,10.35-3.87,4.43-4.42,3.88-11.86,3.86-12.17l-0.12-1.44L54,31s-0.39,0-1,0c-2.18,0-7.61.38-11.12,3.89-4,4-3.94,10.44-3.87,11.88h0l0,18A32.58,32.58,0,0,0,32.6,0ZM15.47,42.31C13.2,40,12.69,36.42,12.6,34.37c2,0.09,5.66.6,7.94,2.87s2.78,5.89,2.88,7.94C21.36,45.09,17.75,44.59,15.47,42.31Zm28.74-5.07c2.28-2.28,5.9-2.78,7.94-2.87-0.09,2.05-.6,5.67-2.87,7.94s-5.89,2.78-7.94,2.87C41.43,43.13,41.94,39.52,44.21,37.24Z"/></svg>