<?xml version="1.0" encoding="utf-8"?>
<!-- Generator: Adobe Illustrator 19.1.0, SVG Export Plug-In . SVG Version: 6.00 Build 0)  -->
<svg version="1.1" id="Layer_1" xmlns="http://www.w3.org/2000/svg" xmlns:xlink="http://www.w3.org/1999/xlink" x="0px" y="0px"
	 viewBox="0 0 165 86.2" style="enable-background:new 0 0 165 86.2;" xml:space="preserve">
<style type="text/css">
	.st0{clip-path:url(#SVGID_2_);}
	.st1{clip-path:url(#SVGID_4_);fill:#0A80C4;}
	.st2{clip-path:url(#SVGID_6_);fill:#0A80C4;}
	.st3{clip-path:url(#SVGID_6_);fill:#FEDC00;}
</style>
<g>
	<defs>
		<rect id="SVGID_1_" x="0.1" width="165" height="86.2"/>
	</defs>
	<clipPath id="SVGID_2_">
		<use xlink:href="#SVGID_1_"  style="overflow:visible;"/>
	</clipPath>
	<g class="st0">
		<defs>
			<rect id="SVGID_3_" y="-0.8" width="166" height="87"/>
		</defs>
		<clipPath id="SVGID_4_">
			<use xlink:href="#SVGID_3_"  style="overflow:visible;"/>
		</clipPath>
		<path class="st1" d="M10.9,74.8C6.1,74.8,2.3,74,0,72.6V37.6c2.5-1.3,6.1-2.2,10.5-2.2c11.6,0,16.6,8,16.6,19.4
			C27.1,66.2,22.4,74.8,10.9,74.8 M10.6,40C9.1,40,8,40.2,7,40.6v28.8c0.8,0.3,2.2,0.6,3.7,0.6c6.6,0,9.1-4.8,9.1-15.2
			C19.9,44.8,17,40,10.6,40z"/>
	</g>
</g>
<g>
	<defs>
		<rect id="SVGID_5_" y="-0.8" width="166" height="87"/>
	</defs>
	<clipPath id="SVGID_6_">
		<use xlink:href="#SVGID_5_"  style="overflow:visible;"/>
	</clipPath>
	<path class="st2" d="M47.9,74.8c-8.9,0-14-5.7-14-15.2C33.9,49.8,39.2,44,47,44c1.7,0,3.2,0.2,4.5,0.6v-14h6.8v42.1
		C55.9,74,52.5,74.8,47.9,74.8 M51.5,48.2c-1-0.3-1.9-0.4-3-0.4c-5.9,0-7.9,5.1-7.9,11.4c0,6.8,2.2,11.2,7.4,11.2
		c1.6,0,2.7-0.2,3.5-0.7V48.2z"/>
	<path class="st2" d="M78.7,48.7c-2.3-0.8-4.8-0.7-6.4,0.2v25.3h-6.8V45.9c3.1-1.5,6.9-2.3,14.5-2.1L78.7,48.7"/>
	<path class="st2" d="M94.8,74.8c-8.4,0-12.5-6.7-12.5-15.5c0-9,4.1-15.6,12.5-15.6c8.5,0,12.5,6.6,12.5,15.6
		C107.2,68.1,103.2,74.8,94.8,74.8 M94.8,48C90,48,89,53.5,89,59.2c0,5.7,1.1,11,5.7,11c4.8,0,5.7-5.3,5.7-11
		C100.5,53.5,99.6,48,94.8,48z"/>
	<path class="st2" d="M124.6,74.7c-1.7,0-3.5-0.2-4.5-0.6c0,0,0,3.7,0,7.8c0,4.2-6.7,4.4-6.7,4.4V45.9c2.3-1.2,5.6-2.2,10.4-2.2
		c8.7,0,14,5.6,14,15.2C137.8,68.7,132.4,74.7,124.6,74.7 M123.6,47.8c-1.5,0-2.6,0.2-3.5,0.6v21.7c0.8,0.3,1.8,0.5,3,0.5
		c5.4,0,8-4.2,8-11.5C131,51.9,129.1,47.8,123.6,47.8z"/>
	<path class="st3" d="M94.4,0h2.8v6.7h-2.8V0z M73.8,8.6l2.3,4l2.4-1.4l-2.3-4L73.8,8.6z M57.5,23.4l5.6,3.4l1.4-2.4L59,21
		L57.5,23.4z M112.3,11.2l2.4,1.4l2.3-4l-2.4-1.4L112.3,11.2z M126.2,24.4l1.4,2.4l5.6-3.4l-1.4-2.4L126.2,24.4z M95.4,18.9
		c12.9,0,24.1,7.7,29,18.7c-2.4-14.7-14.4-25.9-29-25.9c-14.5,0-26.6,11.2-29,25.9C71.3,26.6,82.4,18.9,95.4,18.9z"/>
	<path class="st2" d="M150.4,74.8c-3.5,0-6.5-0.9-8.3-2.2l1.8-4.3c1.1,0.9,3.2,1.7,5.6,1.7c2.8,0,4.6-1.8,4.6-4.2
		c0-2.6-1.3-3.8-4.4-5c-5.7-2.2-6.9-5.3-6.9-8.4c0-4.8,3.8-8.7,9.5-8.7c3.3,0,5.8,0.8,7.8,2.1l-1.7,4c-0.9-0.7-2.7-1.7-4.8-1.7
		c-2.8,0-4.3,1.8-4.3,4c0,2.5,1.8,3.7,4.5,4.7c5.8,2.3,7.2,5.3,7.2,8.9C161.1,70.5,157,74.8,150.4,74.8"/>
	<polyline class="st2" points="162,42.6 162.4,44.6 162.4,44.6 162.4,44.5 162.6,43.8 162.8,42.6 163.1,42.6 163.4,45.3 163,45.3 
		162.9,44.3 162.9,43.8 162.9,43.4 162.9,43.4 162.8,43.8 162.6,45.3 162.3,45.3 162,43.4 161.9,43.4 161.8,45.3 161.5,45.3 
		161.7,42.6 162,42.6 	"/>
	<path class="st2" d="M164.1,42.6c0.4,0,0.9,0,0.9,1.4c0,1.3-0.4,1.3-1.1,1.3h-0.3v-2.8H164.1 M164.1,42.9V45c0.6,0,0.6-0.6,0.6-1
		C164.6,43.6,164.7,42.9,164.1,42.9z"/>
</g>
</svg>
