<?xml version="1.0" encoding="UTF-8" standalone="no"?>
<!-- Created with Inkscape (http://www.inkscape.org/) -->

<svg
   xmlns:dc="http://purl.org/dc/elements/1.1/"
   xmlns:cc="http://creativecommons.org/ns#"
   xmlns:rdf="http://www.w3.org/1999/02/22-rdf-syntax-ns#"
   xmlns:svg="http://www.w3.org/2000/svg"
   xmlns="http://www.w3.org/2000/svg"
   xmlns:sodipodi="http://sodipodi.sourceforge.net/DTD/sodipodi-0.dtd"
   xmlns:inkscape="http://www.inkscape.org/namespaces/inkscape"
   width="159.73997"
   height="22.032089"
   viewBox="0 0 42.264533 5.8293235"
   version="1.1"
   id="svg10044"
   inkscape:version="0.92.0 r15299"
   sodipodi:docname="screen.svg">
  <defs
     id="defs10038" />
  <sodipodi:namedview
     id="base"
     pagecolor="#ffffff"
     bordercolor="#666666"
     borderopacity="1.0"
     inkscape:pageopacity="0.0"
     inkscape:pageshadow="2"
     inkscape:zoom="5.6507506"
     inkscape:cx="79.369983"
     inkscape:cy="10.516053"
     inkscape:document-units="mm"
     inkscape:current-layer="layer1"
     showgrid="false"
     fit-margin-top="0"
     fit-margin-left="0"
     fit-margin-right="0"
     fit-margin-bottom="0"
     units="px"
     inkscape:window-width="1280"
     inkscape:window-height="744"
     inkscape:window-x="-4"
     inkscape:window-y="-4"
     inkscape:window-maximized="1" />
  <metadata
     id="metadata10041">
    <rdf:RDF>
      <cc:Work
         rdf:about="">
        <dc:format>image/svg+xml</dc:format>
        <dc:type
           rdf:resource="http://purl.org/dc/dcmitype/StillImage" />
        <dc:title></dc:title>
      </cc:Work>
    </rdf:RDF>
  </metadata>
  <g
     inkscape:label="Layer 1"
     inkscape:groupmode="layer"
     id="layer1"
     transform="translate(-132.45836,-176.78043)">
    <g
       id="g10086">
      <path
         d="m 160.85802,176.91272 v 5.56436 h 6.40997 v -1.16875 h -5.24228 v -1.0294 h 5.24228 v -1.1677 h -5.24228 v -1.02905 h 5.24228 v -1.16946 h -6.40997"
         style="fill:#005bac;fill-opacity:1;fill-rule:nonzero;stroke:none;stroke-width:0.35277778"
         id="path9494"
         inkscape:connector-curvature="0" />
      <path
         d="m 173.42467,176.91272 v 3.98851 l -4.41889,-3.98851 h -1.16664 v 5.56436 h 1.16664 v -3.99027 l 4.41889,3.99027 h 1.16593 v -5.56436 h -1.16593"
         style="fill:#005bac;fill-opacity:1;fill-rule:nonzero;stroke:none;stroke-width:0.35277778"
         id="path9498"
         inkscape:connector-curvature="0" />
      <path
         d="m 153.87763,176.91272 v 5.56436 h 6.40891 v -1.16875 h -5.24157 v -1.0294 h 5.24157 v -1.1677 h -5.24157 v -1.02905 h 5.24157 v -1.16946 h -6.40891"
         style="fill:#005bac;fill-opacity:1;fill-rule:nonzero;stroke:none;stroke-width:0.35277778"
         id="path9502"
         inkscape:connector-curvature="0" />
      <path
         d="m 147.94987,179.11125 v -1.0287 h 3.78742 c 0.28434,0 0.51647,0.23036 0.51647,0.514 0,0.28434 -0.23213,0.5147 -0.51647,0.5147 z m 5.47194,-0.5147 c 0,-0.92781 -0.75389,-1.68381 -1.68452,-1.68381 h -4.95406 v 5.56472 h 1.16664 v -2.19852 h 2.02494 l 1.84221,2.19852 h 1.52541 l -1.84256,-2.19852 h 0.23742 c 0.93063,0 1.68452,-0.75459 1.68452,-1.68239"
         style="fill:#005bac;fill-opacity:1;fill-rule:nonzero;stroke:none;stroke-width:0.35277778"
         id="path9506"
         inkscape:connector-curvature="0" />
      <path
         d="m 137.91336,179.11125 h -3.63855 c -0.28399,0 -0.51576,-0.23036 -0.51576,-0.5147 0,-0.28364 0.23177,-0.514 0.51576,-0.514 h 5.06871 v -1.16981 h -5.06871 c -0.92992,0 -1.68416,0.756 -1.68416,1.68381 0,0.9278 0.75424,1.68239 1.68416,1.68239 h 3.63855 c 0.28363,0 0.5147,0.23143 0.5147,0.51541 0,0.28399 -0.23107,0.51435 -0.5147,0.51435 H 132.845 v 1.16876 h 5.06836 c 0.92922,0 1.68099,-0.75671 1.68099,-1.68311 0,-0.92745 -0.75177,-1.6831 -1.68099,-1.6831"
         style="fill:#005bac;fill-opacity:1;fill-rule:nonzero;stroke:none;stroke-width:0.35277778"
         id="path9510"
         inkscape:connector-curvature="0" />
      <path
         d="m 139.91607,179.69297 c 0,1.5367 1.24495,2.78447 2.78059,2.78447 h 3.51297 v -1.1691 h -3.51297 c -0.89182,0 -1.61325,-0.72108 -1.61325,-1.61537 0,-0.88935 0.72143,-1.61043 1.61325,-1.61043 h 3.51297 v -1.16981 h -3.51297 c -1.53564,0 -2.78059,1.24672 -2.78059,2.78024"
         style="fill:#005bac;fill-opacity:1;fill-rule:nonzero;stroke:none;stroke-width:0.35277778"
         id="path9514"
         inkscape:connector-curvature="0" />
    </g>
  </g>
</svg>
