<svg version="1.1" id="logo" xmlns="http://www.w3.org/2000/svg" xmlns:xlink="http://www.w3.org/1999/xlink" x="0px" y="0px"
	 viewBox="0 0 184.6 75.5" style="enable-background:new 0 0 184.6 75.5;" xml:space="preserve">
<style type="text/css">
	.st0{fill:#00ADEE;}
	.st1{fill:#034EA1;}
	.st2{fill:#231F20;}
</style>
<path class="st0" d="M28.5,0h7.3v7.8h-7.2c-3.6,0-4.9,0.5-6.1,1.5c-1.2,1-2.3,3.5-0.5,5.9c1,1.4,4.4,3.3,9,6
	c2.9,1.7,8.5,5.6,8.6,12.1c0.1,8.1-8.9,13.3-8.9,13.3L29.2,45c1.1-1,2.7-2.7,2.8-5.6c0.2-3.5-1.9-7.2-5.8-9.7c-4-2.5-10-6.2-10-6.2
	S8.3,19,11.6,9.8c1.8-5,5.6-7.4,8.8-8.6c0,0,1.8-0.7,4.1-1C24.5,0.1,25.2,0,28.5,0z"/>
<g>
	<path class="st1" d="M7,47.9c4.1,0,3.8-0.1,5.3-0.1c4.4-0.1,6.2-1.6,6.3-4.5c0.1-2.8-3.6-4.8-5.8-6.1s-3.7-2.2-3.7-2.2
		C7.5,34,0.5,30,0.5,23.1C0.4,14.2,9.6,9.7,9.6,9.7l1.5,1.6c-1.9,1.7-3.5,4-2.7,8.3c0.8,4.3,6.2,7.3,6.2,7.3s0.1,0.2,6.4,3.8
		c6.2,3.6,8.7,7.5,8.6,11.6c-0.1,4.1-3.2,7.9-3.2,7.9c-2.7,3.3-6.7,4.7-9.8,5.3c0,0-1.7,0.4-4.5,0.4c-6,0-12.2,0-12.2,0v-8
		C0,47.9,3.4,47.9,7,47.9"/>
	<path class="st1" d="M59.5,16.8c-0.1-0.2-0.4-0.6-0.8-1c-0.8-0.8-2.1-1.7-4-1.8c-0.1,0-0.1,0-0.2,0c-3,0-12.1,0-12.1,0l0,6
		c0,0,7.5,0,8.8,0c1.3,0,2.2,0.2,2.2,2.2c0,2,0,2.2,0,2.2s-4.1,0-6.3,0c0,0-1.9-0.1-3.4,1c-1.5,1.1-1.9,3.2-1.9,3.2
		s-0.2,0.9-0.2,2.2c0,4.4,0,6.6,0,10c0,3.2,1.8,4.5,1.8,4.5s1,1,3.7,1.1h7.5h0c2.8,0,3.8-1.1,3.8-1.1s1.8-1.2,1.8-4.5l0,0
		c0-3.7,0-20,0-21.2C60.3,18.4,59.9,17.4,59.5,16.8z M53.5,38.7c0,0.7-0.3,1.5-1.7,1.5c-1.4,0-0.8,0-1.7,0c-1,0-1.6-0.5-1.6-1.5
		c0-0.9,0-6.1,0-6.4c0-0.3,0.3-1.6,1.8-1.6c1.5,0,3.3,0,3.3,0S53.5,38,53.5,38.7z"/>
	<path class="st1" d="M63.1,46.4h7V20.2c0,0,2.3,0,3.5,0c1.2,0,2,0.6,2,1.9c0,1.3,0,24.3,0,24.3h6.9V21.4c0-2.5-0.8-3.6-1.1-4.3
		c-0.3-0.7-2.4-3-5.4-3c-2,0-12.9,0-12.9,0V46.4L63.1,46.4z"/>
	<path class="st1" d="M121.6,46.4h7V20.2c0,0,2.3,0,3.5,0c1.2,0,2,0.6,2,1.9c0,1.3,0,24.3,0,24.3h6.9V21.4c0-2.5-0.8-3.6-1.1-4.3
		c-0.3-0.7-2.4-3-5.4-3c-2,0-12.9,0-12.9,0V46.4L121.6,46.4z"/>
	<path class="st1" d="M90.8,46.5h7.9v-6.1c0,0-2.4,0-4.5,0c-2,0-1.9-1.7-1.9-1.7c0-2.7,0-18.5,0-18.5h6.4v-6h-6.4V6.3l-7,10.5
		c0,0,0,22.3,0,23.4c0,2.9,1.4,4.3,1.4,4.3S88.3,46.5,90.8,46.5z"/>
	<path class="st1" d="M117.9,16.1c-1.2-1.6-2.7-2-4.5-2h-7.4c-1.8,0.1-3.4,0.4-4.5,2c-1.2,1.6-1,3.9-1,3.9s0,18.4,0,20.8
		c0,0-0.1,2.4,1.8,4.1c0,0,1.5,1.4,3.7,1.4h12.3v-6.1c0,0-7,0-8.9,0c0,0-0.9,0.1-1.6-0.5c0,0-0.5-0.4-0.5-1.5c0-0.2,0-2.6,0-2.6
		s4,0,6.2,0c0,0,2.7,0,4-1.4c1.3-1.4,1.5-3.3,1.5-3.6c0-0.4,0-8.3,0-10.7h0C118.8,20,119,17.7,117.9,16.1z M112,27.8
		c0,2-2.1,1.8-2.1,1.8h-2.8V22c0-2,2.1-1.8,2.1-1.8h0.8c0,0,2.1-0.2,2.1,1.8V27.8z"/>
</g>
<g>
	<g>
		<path class="st2" d="M43,68.8l2.2-3.6l0.5,3.6H43z M49.4,72.1c-0.9-0.1-1-0.1-1.2-1.3l-1.4-8.4h-0.4l-5.5,8.6
			c-0.5,0.9-0.8,0.9-1.2,1v0.4h2.9v-0.4c-0.3,0-1,0-1-0.5c0-0.3,0.1-0.5,0.2-0.7l0.9-1.5h3.2c0.2,1.6,0.2,1.6,0.2,1.9
			c0,0.7-0.5,0.8-1.2,0.8v0.4h4.5V72.1z"/>
		<path class="st2" d="M62.3,65.8l-0.5-0.1c0-0.2,0-0.3,0-0.5c0-1.4-0.7-2.3-2-2.3c-2.4,0-4.1,3.8-4.1,6.4c0,2.6,1.9,2.6,2.1,2.6
			c1.2,0,2.1-0.4,3.2-1.7l0.4,0.3c-0.7,1.1-2.1,2.2-4,2.2c-1.9,0-4-1.1-4-3.8c0-3.3,2.4-6.5,6-6.5c1.3,0,2.1,0.4,2.4,0.4
			c0.3,0,0.4-0.2,0.6-0.4H63L62.3,65.8z"/>
		<path class="st2" d="M66.4,70.6c-0.6,1-1.3,2-2.5,2c-1,0-1-0.8-1-1c0-0.9,2.1-7.5,2.1-8.1c0-0.5-0.5-0.5-0.9-0.4v-0.4
			c1.2-0.1,1.9-0.2,3.1-0.4l-2.1,7.7c-0.1,0.3-0.3,1.2-0.3,1.5c0,0.2,0.2,0.2,0.2,0.2c0.4,0,0.9-0.7,1.1-1.2L66.4,70.6z"/>
		<path class="st2" d="M71.1,66.2c0.4,0,0.4,0.4,0.4,0.5c0,0.8-0.4,2.1-2.3,2.7C69.5,68.2,70.2,66.2,71.1,66.2z M71.7,70.4
			c-0.4,0.5-0.9,1.3-1.7,1.3c-0.3,0-1,0-1-1.2c0-0.3,0-0.5,0.1-0.7c2.8-0.4,3.8-2,3.8-2.8c0-1.1-1-1.3-1.5-1.3
			c-2.4,0-4.3,2.7-4.3,4.7c0,1.6,1.2,2.3,2.2,2.3c1.6,0,2.3-1.3,2.8-2L71.7,70.4z"/>
		<path class="st2" d="M75.7,71.6c-0.2,0-0.6-0.2-0.6-0.8c0-1,1.2-4.5,2.4-4.5c0.1,0,0.5,0.1,0.5,0.7C78.1,68.1,77,71.6,75.7,71.6z
			 M80,70.6c-0.4,0.5-0.8,1-1,1c-0.1,0-0.2,0-0.2-0.2c0-0.5,0.3-1.5,0.5-2.2l1-3.5l-1.6,0.1l-0.2,0.8h0c-0.1-0.4-0.2-1-1.1-1
			c-1.8,0-4,2.9-4,5.1c0,0.5,0.1,1.9,1.6,1.9c1.2,0,2-1.2,2.3-1.9l0,0c-0.1,0.4-0.2,0.7-0.2,0.9c0,0.8,0.7,1,1,1
			c0.9,0,1.7-1.1,2.2-1.8L80,70.6z"/>
		<path class="st2" d="M81.4,66.1c1.5-0.1,2-0.2,2.9-0.4l-0.8,2.6l0.1,0c0.4-0.9,1.3-2.6,2.3-2.6c0.1,0,0.9,0,0.9,1
			c0,0.7-0.4,1.1-0.9,1.1c-0.5,0-0.7-0.6-0.9-0.6c-0.4,0-1.2,1.5-1.5,2.2c-0.4,1-0.5,1.7-1,3.1h-1.8c0.8-2.6,1.5-5.1,1.5-5.6
			c0-0.4-0.3-0.4-0.8-0.4V66.1z"/>
		<path class="st2" d="M99.9,63c-0.5,0.2-0.8,0.5-0.9,0.6l-5.8,9.1h-0.5l-1.1-7.5C91.4,63,91.3,63,90.4,63v-0.4h4.4V63
			c-0.9,0.1-1.2,0.1-1.1,0.9l0.7,5.8h0l2.8-4.4c0.2-0.4,0.9-1.4,0.9-1.8c0-0.5-0.3-0.5-1-0.5v-0.4h2.8V63z"/>
		<path class="st2" d="M102.3,70.6c-0.7,1.1-1.4,2-2.5,2c-0.9,0-1-0.6-1-1c0-0.6,1.1-4.3,1.1-4.7c0-0.5-0.4-0.5-0.9-0.5v-0.4
			c0.6,0,2-0.2,3-0.4c-0.6,2.1-1.5,5.2-1.5,5.7c0,0.1,0.1,0.2,0.2,0.2c0.4,0,0.9-0.7,1.1-1.2L102.3,70.6z M101.7,62.4
			c0.6,0,1,0.5,1,1c0,0.5-0.4,1-1,1c-0.7,0-1-0.6-1-1C100.7,63,101,62.4,101.7,62.4z"/>
		<path class="st2" d="M107.5,67.9l-0.4,0c-0.1-0.7-0.4-1.7-1.3-1.7c-0.8,0-0.8,0.7-0.8,0.8c0,0.9,2,2.2,2,3.7c0,1.4-1.3,2-2.2,2
			c-0.6,0-1-0.3-1.3-0.3c-0.1,0-0.4,0-0.4,0.3h-0.4l0.3-2.4l0.4,0c0.2,2,1.3,2,1.4,2c0.6,0,0.8-0.4,0.8-0.8c0-0.4-0.4-1-0.8-1.5
			c-0.8-0.9-1.2-1.5-1.2-2.4c0-1.3,1-1.8,2-1.8c0.7,0,0.9,0.3,1.4,0.3c0.2,0,0.3-0.1,0.4-0.3h0.4L107.5,67.9z"/>
		<path class="st2" d="M112.2,70.6c-0.7,1.1-1.4,2-2.5,2c-0.9,0-1-0.6-1-1c0-0.6,1.1-4.3,1.1-4.7c0-0.5-0.4-0.5-0.9-0.5v-0.4
			c0.6,0,2-0.2,3-0.4c-0.6,2.1-1.5,5.2-1.5,5.7c0,0.1,0.1,0.2,0.2,0.2c0.4,0,0.9-0.7,1.1-1.2L112.2,70.6z M111.5,62.4
			c0.6,0,1,0.5,1,1c0,0.5-0.4,1-1,1c-0.7,0-1-0.6-1-1C110.6,63,110.9,62.4,111.5,62.4z"/>
		<path class="st2" d="M116.8,66.1c0.4,0,0.7,0.2,0.7,0.9c0,1.1-0.9,5.2-2.3,5.2c-0.8,0-0.8-0.7-0.8-1
			C114.5,70.3,115.2,66.1,116.8,66.1z M117,65.7c-2.3,0-4.2,2.5-4.2,4.8c0,1.4,1.1,2.2,2.3,2.2c2.3,0,4.2-2.5,4.2-4.7
			C119.3,66,117.5,65.7,117,65.7z"/>
		<path class="st2" d="M127.1,70.7c-0.5,0.8-1.2,1.9-2.3,1.9c-0.2,0-1,0-1-1c0-1,1.3-4.3,1.3-4.6c0-0.2-0.2-0.3-0.4-0.3
			c-0.4,0-1.8,0.7-3.1,5.7h-1.8c0.7-2.8,1.5-5.2,1.5-5.6c0-0.4-0.4-0.4-0.8-0.4v-0.4c0.3,0,1.8-0.1,2.9-0.4l-0.9,2.7l0,0
			c1.1-1.6,1.8-2.8,3.1-2.8c0.4,0,1.1,0,1.1,1.2c0,1-1.3,4.1-1.3,4.5c0,0.1,0.1,0.3,0.2,0.3c0.3,0,0.6-0.5,1-1.1L127.1,70.7z"/>
		<path class="st2" d="M138.2,69.5l-0.4-0.1c0-0.3,0.1-0.4,0.1-0.6c0-1-0.4-1.4-2-1.4l-0.8,3c-0.1,0.2-0.2,0.7-0.2,1
			c0,0.5,0.3,0.6,1,0.7v0.4h-4.3v-0.4c0.6-0.1,0.9-0.1,1.2-1.1l1.8-6.6c0-0.1,0.1-0.6,0.1-0.8c0-0.5-0.2-0.5-1.1-0.6v-0.4h7.8
			l-0.6,2.8l-0.4-0.1c0-1,0-2.2-2.7-2.2c-0.6,0-0.7,0.2-0.9,0.6L136,67c2.1,0,2.3-0.3,2.9-1.6l0.4,0.1L138.2,69.5z"/>
		<path class="st2" d="M144.1,66.1c0.4,0,0.7,0.2,0.7,0.9c0,1.1-0.9,5.2-2.3,5.2c-0.8,0-0.8-0.7-0.8-1
			C141.8,70.3,142.6,66.1,144.1,66.1z M144.3,65.7c-2.3,0-4.2,2.5-4.2,4.8c0,1.4,1.1,2.2,2.3,2.2c2.3,0,4.2-2.5,4.2-4.7
			C146.6,66,144.8,65.7,144.3,65.7z"/>
		<path class="st2" d="M147.9,66.1c1.5-0.1,2-0.2,2.9-0.4l-0.8,2.6l0.1,0c0.4-0.9,1.3-2.6,2.3-2.6c0.1,0,0.9,0,0.9,1
			c0,0.7-0.4,1.1-0.9,1.1c-0.5,0-0.7-0.6-0.9-0.6c-0.4,0-1.2,1.5-1.5,2.2c-0.4,1-0.5,1.7-1,3.1h-1.8c0.8-2.6,1.5-5.1,1.5-5.6
			c0-0.4-0.3-0.4-0.8-0.4V66.1z"/>
		<path class="st2" d="M164.6,72.5h-8.1v-0.4c0.6-0.1,0.9-0.2,1.2-1.1l1.8-6.6c0,0,0.1-0.6,0.1-0.8c0-0.5-0.1-0.5-1.1-0.6v-0.4h4.7
			V63c-0.8,0-1.2,0.2-1.5,1.1l-1.9,7c-0.1,0.3-0.1,0.4-0.1,0.5c0,0.1,0,0.4,1,0.4c1.8,0,3.4-0.6,4.4-2.5l0.4,0.1L164.6,72.5z"/>
		<path class="st2" d="M169.7,70.6c-0.7,1.1-1.4,2-2.5,2c-0.9,0-1-0.6-1-1c0-0.6,1.1-4.3,1.1-4.7c0-0.5-0.4-0.5-0.9-0.5v-0.4
			c0.6,0,2-0.2,3-0.4c-0.6,2.1-1.5,5.2-1.5,5.7c0,0.1,0.1,0.2,0.2,0.2c0.4,0,0.9-0.7,1.1-1.2L169.7,70.6z M169,62.4c0.6,0,1,0.5,1,1
			c0,0.5-0.4,1-1,1c-0.7,0-1-0.6-1-1C168.1,63,168.4,62.4,169,62.4z"/>
		<path class="st2" d="M175,66.5h-1.3c-1.2,5.9-1.9,9-4.4,9c-0.8,0-1.4-0.4-1.4-1.2c0-0.5,0.5-0.7,0.7-0.7c0.2,0,0.7,0.2,0.7,0.7
			c0,0.3-0.2,0.5-0.2,0.6c0,0.1,0.1,0.2,0.2,0.2c0.7,0,0.9-0.8,1.4-2.8c0.4-1.7,1-4.6,1.3-5.8h-1.1l0.1-0.6h1.1
			c0.5-2,1.5-3.7,3.3-3.7c1.3,0,1.4,0.9,1.4,1.2c0,0.6-0.4,0.8-0.8,0.8c-0.4,0-0.7-0.3-0.7-0.7c0-0.3,0.2-0.5,0.2-0.6
			c0-0.2-0.1-0.2-0.2-0.2c-0.8,0-1.2,1.6-1.3,2.2l-0.3,1h1.3L175,66.5z"/>
		<path class="st2" d="M178.9,66.2c0.4,0,0.4,0.4,0.4,0.5c0,0.8-0.4,2.1-2.3,2.7C177.3,68.2,178,66.2,178.9,66.2z M179.5,70.4
			c-0.4,0.5-0.9,1.3-1.7,1.3c-0.3,0-1,0-1-1.2c0-0.3,0-0.5,0.1-0.7c2.8-0.4,3.8-2,3.8-2.8c0-1.1-1-1.3-1.5-1.3
			c-2.4,0-4.3,2.7-4.3,4.7c0,1.6,1.2,2.3,2.2,2.3c1.6,0,2.3-1.3,2.8-2L179.5,70.4z"/>
	</g>
</g>
<g>
	<path class="st2" d="M183.3,63.1c0,0.2-0.2,0.4-0.4,0.4h-0.5v-0.7h0.4C183.2,62.7,183.3,62.8,183.3,63.1 M183.8,64.5l-0.5-0.9
		c0.2-0.1,0.4-0.2,0.4-0.6c0-0.4-0.3-0.6-0.7-0.6h-0.8v2.1h0.3v-0.9h0.5l0.5,0.9H183.8z"/>
	<path class="st2" d="M181.2,63.5c0,0.9,0.8,1.7,1.7,1.7c0.9,0,1.7-0.8,1.7-1.7c0-0.9-0.8-1.7-1.7-1.7
		C182,61.8,181.2,62.6,181.2,63.5 M181.4,63.5c0-0.8,0.7-1.5,1.5-1.5c0.8,0,1.5,0.7,1.5,1.5c0,0.8-0.7,1.5-1.5,1.5
		C182.1,65,181.4,64.3,181.4,63.5"/>
</g>
</svg>
