<?xml version="1.0" encoding="utf-8"?>
<!-- Generator: Adobe Illustrator 21.0.0, SVG Export Plug-In . SVG Version: 6.00 Build 0)  -->
<svg version="1.1" id="Laag_1" xmlns="http://www.w3.org/2000/svg" xmlns:xlink="http://www.w3.org/1999/xlink" x="0px" y="0px"
	 viewBox="0 0 138.9 36.8" style="enable-background:new 0 0 138.9 36.8;" xml:space="preserve">
<style type="text/css">
	.st0{fill:#1E1E1C;stroke:#1E1E1C;stroke-width:0.7902;}
	.st1{fill:#1E1E1C;stroke:#1E1E1C;stroke-width:0.7375;}
</style>
<path class="st0" d="M58.7,26.4h-0.9V19h-6.3v-0.7h6.3V16c0-1.3-0.4-2.3-1.2-3c-0.8-0.7-1.8-1.1-3.1-1.1c-1.3,0-2.3,0.4-3.1,1.1
	c-0.8,0.7-1.2,1.7-1.2,3l0,10.4h-0.9l0-10.1c0-1.6,0.5-2.9,1.4-3.8c0.9-0.9,2.2-1.4,3.8-1.4c1.6,0,2.8,0.5,3.8,1.4s1.4,2.2,1.4,3.8
	L58.7,26.4z"/>
<path class="st0" d="M66.5,17h-5v9.4h-0.7l0-11v-0.9c0-0.9,0.4-1.8,1.1-2.4c0.6-0.5,1.4-0.8,2.3-0.8h4.7v0.8h-4.7
	c-0.6,0-1.2,0.2-1.7,0.6c-0.6,0.5-0.9,1.2-0.8,2v1.5h4.8L66.5,17z"/>
<path class="st0" d="M72.5,26.4h-1.3c-1,0-1.7-0.3-2.2-0.8c-0.5-0.5-0.8-1.2-0.8-2.1l0-9.6h0.8v2.3h3.6V17h-3.6v6.6
	c0,0.6,0.2,1.1,0.5,1.5c0.4,0.4,0.9,0.6,1.5,0.5h1.4L72.5,26.4z"/>
<path class="st0" d="M83.8,21.3c0,1.3-0.5,2.6-1.5,3.6c-1,1-2.3,1.5-3.7,1.5c-1.5,0.1-2.9-0.5-3.9-1.5c-1-1-1.6-2.4-1.5-3.8
	c0-1.4,0.5-2.8,1.5-3.8c1-1,2.4-1.6,3.8-1.6c0.9,0,1.8,0.2,2.6,0.7c0.8,0.4,1.4,1.1,1.9,1.8l-6.7,4.6c-0.1-0.1-0.2-0.2-0.3-0.3
	c-0.1-0.1-0.2-0.3-0.2-0.5l6-4c-0.8-1-2-1.6-3.3-1.6c-1.2,0-2.4,0.5-3.2,1.4c-0.8,0.9-1.3,2-1.3,3.2c0,1.2,0.4,2.3,1.3,3.1
	c0.8,0.9,2,1.3,3.2,1.3c1.2,0,2.3-0.4,3.2-1.3c0.9-0.8,1.3-1.9,1.3-3L83.8,21.3z"/>
<path class="st0" d="M90.4,17h-0.9c-0.8,0-1.5,0.4-2.2,1.2c-0.6,0.8-1,1.9-0.9,2.9v5.3h-0.8l0-10.2h0.8v2c0.3-0.6,0.7-1,1.2-1.4
	c0.5-0.4,1.2-0.6,1.8-0.6h0.9L90.4,17z"/>
<path class="st0" d="M106,26.5h-2.1c-1.8,0-3.6-0.6-4.9-1.8c-1.5-1.4-2.2-3.2-2.2-5.4c0-2.2,0.7-4,2.2-5.4c1.3-1.2,3.1-1.9,4.9-1.9
	h1.7v0.7h-1.7c-1.7,0-3.3,0.7-4.5,1.9c-1.2,1.2-1.8,2.6-1.8,4h7.4v0.7h-7.4c0,2,0.7,3.6,2.2,4.8c1.2,1,2.8,1.6,4.4,1.6h1.8L106,26.5
	z"/>
<path class="st0" d="M116.2,21.4c0,1.4-0.4,2.7-1.4,3.7c-1.8,1.9-4.8,1.9-6.6,0.2c-0.1-0.1-0.1-0.1-0.2-0.2c-0.9-1-1.4-2.3-1.4-3.6
	c0-1.4,0.4-2.7,1.4-3.7c0.9-1,2.1-1.5,3.4-1.5c0.7,0,1.9,0.2,2.4,0.6v0.9c-0.7-0.4-1.5-0.7-2.4-0.8c-1.1,0-2.1,0.5-2.8,1.3
	c-0.8,0.8-1.2,2-1.2,3.1c0,1.2,0.4,2.3,1.2,3.1c0.7,0.8,1.7,1.2,2.8,1.2c1.1,0,2.2-0.5,2.9-1.3c0.7-0.8,1.2-1.9,1.1-3.1l0-8.2h0.8
	L116.2,21.4z"/>
<path class="st0" d="M128.2,21.6c0,1.3-0.5,2.5-1.5,3.4c-0.9,1-2.2,1.5-3.5,1.5c-1.4,0-2.8-0.5-3.8-1.4c-1-0.9-1.5-2.3-1.5-3.6
	c0-1.4,0.5-2.7,1.4-3.6c1-1,2.3-1.5,3.7-1.5c0.9,0,1.8,0.2,2.5,0.6c0.7,0.4,1.4,1,1.8,1.7l-6.5,4.3c0,0-0.2,0-0.3-0.3
	c-0.1-0.1-0.1-0.3-0.1-0.4l5.8-3.7c-0.8-1-1.9-1.5-3.2-1.5c-1.2,0-2.3,0.5-3.1,1.3c-0.8,0.8-1.2,2-1.2,3.1c0,1.1,0.4,2.2,1.2,3
	c0.8,0.8,1.9,1.3,3.1,1.3c1.1,0,2.2-0.4,3-1.2c0.8-0.8,1.3-1.8,1.3-2.9L128.2,21.6z"/>
<path class="st0" d="M137.7,26.4h-0.8v-5.9c0-0.9-0.3-1.8-0.9-2.4c-1.2-1.2-3.1-1.3-4.4-0.1c0,0-0.1,0.1-0.1,0.1
	c-0.6,0.7-0.9,1.5-0.9,2.5v5.9h-0.8v-6c0-1.1,0.4-2.1,1.1-2.9c0.7-0.8,1.8-1.2,2.8-1.1c1,0,2.1,0.4,2.8,1.1c0.8,0.8,1.2,1.8,1.1,2.9
	L137.7,26.4z"/>
<path class="st1" d="M21.3,23.4c0.2,0,0.1-0.2,0.3-0.1c-0.2-0.1-0.1,0-0.4,0.1c-1.7,0.3-1.6,3.6-3,5.2c-1.4,1.5-6.5,4.8-12.8,2.3
	c0,0-1.7-7,1.9-10.8c0.8-0.8,6.1-0.7,8-3.4c0.2-0.2,0.3-0.5,0.4-0.8c0,0.1-0.1,0.1-0.1,0.2c-2.2,2.9-8,2-8.9,2.8
	c-4.3,4-2.3,12.9-2.3,12.9c6.7,2.9,12.4-1.1,14-2.7S19.4,23.7,21.3,23.4z M3.1,14.7c-0.1-1,2.3-6.9,6.7-9.5
	c4.2-2.5,8.7-0.1,10.5,0.1c1.7,0.2,2.7-0.5,2.6-2.3c-4.2,2.3-7-1.8-12.8,0.9C5.2,6.2,2,14.2,2,14.8c0.1,0.5,1.8,2.5,4,3.1
	C4.4,16.9,3.1,15.1,3.1,14.7L3.1,14.7z"/>
<path class="st1" d="M19.4,30.5c0,1,1.3,2.8,1.9,3.4l0,0l0.2,0.2l0,0c6-1.4,9.1-3.5,10.8-5.6l0,0c1.7-2.1,2-4.3,2.1-6l0,0
	c0.1-1.1,0.1-2,0.6-2.7l0,0c1-0.9,1.7-0.2,1.7-0.2c-0.3,0.1-0.6,0.3-0.8,0.6l0,0c-0.1,0.1-0.3,0.4-0.3,1l0,0c0,0.7,0,1.6-0.1,2.6
	l0,0c-0.1,1.9-0.6,4.3-2.7,6.6l0,0c-2.1,2.3-5.6,4.4-11.8,5.9l0,0l-0.2,0l-0.2-0.1l0,0c0,0-1.6-1-2.1-4.8c-0.1-1,0.5-1.5,1-2.2
	C19.4,29.5,19.3,30,19.4,30.5z M19,28.9c-0.1,0.2-0.2,0.3-0.4,0.5l0,0c-1.3,1.3-5.2,4.2-10.3,3.8l0,0c-1.4-0.1-2.9-0.5-4.2-1l0,0
	L4,32.1l0-0.2c-0.4-2.1-0.6-4.2-0.4-6.3l0,0c0.2-2.5,0.9-5.2,2.8-7l0,0c0.4-0.4,1-0.4,1.7-0.5l0,0c8,0.1,8.1-3.7,8.1-3.7
	c0.2,1.1-0.2,2.1-0.9,2.9c-1.1,1.2-4.7,2.2-6.6,2.7l0,0c-0.4,0.1-0.8,0.2-1.1,0.4l0,0c-1.5,1.6-2,3.7-2.2,5.7l0,0
	c-0.1,1.1,0,2.3,0.1,3.4l0,0c0.1,0.6,0.1,1,0.2,1.2l0,0C6.8,31,8,31.2,9.2,31.3l0,0c4.4,0.3,7.7-1.9,8.7-3l0,0c0.9-1,1.1-3.1,2-4.4
	l0,0c0.3-0.5,0.7-0.8,1.3-0.9l0,0c0.2,0,0.3,0,0.5,0l0,0c0.2,0,0.4,0.1,0.5,0.2l0,0c-0.6,0.2-1.1,0.7-1.5,1.3l0,0
	c-0.2,0.5-0.4,0.9-0.5,1.4l0,0C19.9,26.8,19.7,27.9,19,28.9 M21.4,34.5l0.2-0.3L21.4,34.5z M8.4,32.4c1.5,0.1,3-0.1,4.4-0.5l0,0
	c-1.2,0.3-2.5,0.4-3.7,0.3l0,0c-1.3-0.1-2.7-0.4-3.9-0.9l0,0L5,31.2L4.9,31c-0.4-1.7-0.5-3.3-0.4-5l0,0c0.1-2.1,0.7-4.4,2.4-6.2l0,0
	c0.4-0.4,0.9-0.5,1.5-0.6l0,0c0.7-0.2,1.4-0.3,2.3-0.5l0,0c0.2,0,0.4-0.1,0.6-0.2l0,0c-1.2,0.2-2.3,0.3-3.2,0.4l0,0
	c-0.7,0.1-1.2,0.2-1.2,0.3l0,0c-1.7,1.6-2.4,4.1-2.5,6.5l0,0c-0.1,1.4,0,2.8,0.1,4.2l0,0c0.1,0.8,0.2,1.3,0.2,1.6l0,0
	C5.9,32,7.2,32.3,8.4,32.4L8.4,32.4z M13.6,24L13.6,24L13.6,24L13.6,24c5.3-7.7,11.9-15.6,21.1-18.8c4.3-1.5,7-1.4,8.7-1.5l0,0
	c1.7-0.1,2.8-0.4,3.5-1.3l0,0l0.5-0.6l0.2,0.7c0.2,0.5,0.2,1,0.2,1.5l0,0c0,0.6-0.3,1.2-0.7,1.6l0,0c-0.5,0.4-1.3,0.7-2.4,0.6l0,0
	c-0.2,0-0.4,0-0.6-0.1l0,0C43.5,6,42.8,6,42.3,5.9l0,0c-4.9-0.3-8.1,1.2-8.1,1.2c-0.5,0.2-0.5,0.7-0.6,1.1l0,0
	c-0.1,0.7,0.4,1.5,2.5,2.6c3.5,1.7,4,3.8,3.8,5.9l0,0c-0.3,2.4-1.7,3.1-1.8,3.3c0.5-0.7,0.9-1.6,1-2.4c0.2-1.5-0.3-3.8-3.8-5.4
	c-2.8-1.3-3.7-2.8-3.7-3.9l0,0C23.2,12.2,13.6,24,13.6,24L13.6,24z M3.5,14.7L3.5,14.7c0,0,0,0.5,0.7,1.5c0.5,0.6,1.1,1.2,1.8,1.7
	c-1.7-0.5-3.3-1.4-4-2.2l0,0c-0.2-0.2-0.3-0.5-0.4-0.8l0,0v0l0,0l0,0l0,0c0,0,0-0.1,0-0.1l0,0c0-0.4,0.2-1,0.6-1.9h0
	c0.5-1.1,1-2.2,1.7-3.2l0,0c1.4-2.4,3.5-4.9,6-6.1l0,0c1.5-0.8,3.3-1.1,5-1l0,0c1.8,0.1,3.3,0.7,4.7,0.8l0,0
	c1.1,0.1,2.1-0.1,3.1-0.7l0,0l0.6-0.3l0,0.7c0,0.2,0,0.3,0,0.5l0,0c0,0.7-0.3,1.4-0.9,1.8l0,0c-0.6,0.4-1.3,0.6-2,0.5l0,0l-0.2,0
	l0,0C19,5.6,17,4.7,14.7,4.5l0,0c-1.7-0.2-3.3,0.2-4.8,1.1l0,0c-2,1.2-3.6,3.1-4.7,4.9l0,0c-1.1,1.8-1.7,3.5-1.8,4.1l0,0
	C3.5,14.6,3.5,14.6,3.5,14.7L3.5,14.7"/>
<path class="st1" d="M12.5,12.2c2-1.7,3.9-2.3,5.8-2.2l0,0c1.4,0.1,2.1,0.5,3.2,0.8c1.1,0.3,2.6,0,2.6,0c-1.1,1.2-2.5,1.3-3.8,1.2
	l0,0c-0.9-0.1-1.7-0.4-2.2-0.5l0,0c-0.4-0.1-0.8-0.2-1.2-0.2l0,0C15.1,11.1,12.5,12.2,12.5,12.2z"/>
<path class="st1" d="M25.2,27.8c0.6-1.4,1-2.8,1.1-4.3l0,0c0.1-1.4-0.1-2.7-0.4-4l0,0c-0.4-1.2-0.5-2.5-0.5-3.8l0,0
	c0.1-2,1.1-3.2,2.2-4.3c0,0-0.8,1.9-0.9,3.4l0,0c-0.1,1.2,0.2,2.6,0.8,4.6l0,0c0.3,0.9,0.3,1.9,0.3,2.8l0,0
	c-0.9,6.1-4.1,7.7-4.1,7.7C24.3,29.3,24.8,28.6,25.2,27.8z"/>
</svg>
