<?xml version="1.0" encoding="utf-8"?>
<!-- Generator: Adobe Illustrator 21.0.0, SVG Export Plug-In . SVG Version: 6.00 Build 0)  -->
<svg version="1.1" id="Laag_1" xmlns="http://www.w3.org/2000/svg" xmlns:xlink="http://www.w3.org/1999/xlink" x="0px" y="0px"
	 viewBox="0 0 127.6 58.7" style="enable-background:new 0 0 127.6 58.7;" xml:space="preserve">
<style type="text/css">
	.st0{fill:#323232;}
</style>
<g>
	<path class="st0" d="M12.7,19.1l-2.3,19.3c0.7,0.4,1.3,0.6,2,0.5c4-0.4,5.8-8.6,5.1-15.4c-0.4-4.6-2.6-6.2-5.5-5.9
		c-5,0.5-8.6,3.9-8.1,9c0.2,1.7,0.6,2,0.7,2.3c-2.2,0.2-3.7-0.5-3.9-2.8c-0.4-4.6,4.9-9.4,11.7-10.1c6.5-0.6,9.4,3.7,9.9,8.9
		c0.7,7.8-2.9,16.4-7.9,16.9c-1.3,0.1-2.7-0.3-4.3-1.4L10,41.6l-4.9,0.4l2.6-21.9L12.7,19.1z"/>
	<path class="st0" d="M28.4,34.2c0.2,2.6,1.3,2.5,1.9,2.5c1-0.1,2.3-1.2,2.5-3.2l0.9-7.8c0-0.4-0.4-1.3-1.5-1.2
		C29.4,24.8,28.1,31,28.4,34.2 M39,22l-1.4,11.7c-0.1,0.4-0.1,0.8,0,1.1c0.1,0.9,0.6,1.4,1.5,1.3c1.3-0.1,2.1-1.7,2.4-3.4l1.4-0.1
		c-1.4,5.7-4.4,6.7-6.2,6.9c-1.9,0.2-3.2-0.8-3.6-2.8c-0.9,1.6-2.4,3.3-4.7,3.6c-2.3,0.2-4.6-1-5-5C23,30.6,25.1,23.1,31,22.5
		c1.9-0.2,2.8,0.5,2.9,1.5l0,0.2l0.2-1.8L39,22z"/>
	<path class="st0" d="M57.7,23.2c-1.2,0.1-2,1.6-2.4,3.3l-1.3,11l-4.9,0.4l1.4-11.9c0-0.3,0.1-0.5,0-0.9c-0.1-0.7-0.4-1.5-1.1-1.4
		c-1.3,0.1-2.1,1.7-2.4,3.4l-1.3,11l-4.9,0.4l2-17.2l4.9-0.4L47.5,23c1.3-1.7,2.8-2.2,3.9-2.3c1.8-0.2,3.2,0.5,3.7,2.6
		c1.4-2.6,3.2-3.2,4.4-3.3c2.2-0.2,3.8,0.8,4.1,3.5c0.2,2.7-1,7-0.8,8.9c0.1,0.8,0.5,1.4,1.5,1.3c1.5-0.1,2-1.4,2.6-3.2l1.4-0.1
		c-1.4,5.7-3.9,6.7-5.7,6.8c-2.9,0.3-4.2-1.5-4.3-3.5c-0.2-2.3,0.9-6.6,0.7-8.7C58.9,23.7,58.5,23.2,57.7,23.2"/>
	<path class="st0" d="M76.7,23.7c-0.2-2.6-1.3-2.7-1.9-2.6c-0.7,0.1-1.6,0.7-2.2,1.9l-1.1,9.6c0.2,0.4,0.6,0.7,1.4,0.7
		C76.4,32.8,77,26.8,76.7,23.7 M73.2,17.6l-0.3,2.6c0.9-0.9,2.1-1.7,3.8-1.8c2.3-0.2,4.2,0.9,4.6,5c0.4,4.6-0.7,12.1-7.2,12.7
		c-1.7,0.2-2.6-0.3-3-1l-1,8.4l-5,1.7l3.2-27.1L73.2,17.6z"/>
</g>
<polygon class="st0" points="90,26.8 83.2,27.4 83.6,24.7 90.3,24.1 "/>
<path class="st0" d="M100.6,17.9c-1.7,0.2-3,4.1-3.5,7.3c2.6-0.4,4.7-3.2,4.4-6C101.5,18.3,101.2,17.8,100.6,17.9 M99.4,30.5
	c1.3-0.1,2.8-1.1,3.8-2.2c-0.4,3.9-2.7,5.3-5.4,5.5c-3.1,0.3-5.4-1.1-5.7-4.9c-0.4-3.9,1.1-12.2,8-12.8c3-0.3,3.9,1.2,4,2.9
	c0.4,3.9-3.1,7.2-7.1,7.8c0,0.3,0,0.7,0,1C97.2,30,98.2,30.6,99.4,30.5"/>
<g>
	<path class="st0" d="M115.5,35.3c-0.4,0-0.9-0.1-1.3-0.1c-0.2,0-0.4-0.1-0.6-0.1c-0.1,0-0.2-0.1-0.3-0.1c-0.1,0-0.2-0.1-0.3-0.1
		c-0.4-0.1-0.7-0.3-1-0.4c-0.2-0.1-0.3-0.1-0.4-0.2c-0.1-0.1-0.3-0.1-0.4-0.2c-0.2-0.1-0.5-0.3-0.6-0.4c-0.3-0.2-0.5-0.4-0.5-0.4
		s0.2,0,0.6,0c0.2,0,0.4,0,0.7,0.1c0.1,0,0.3,0,0.4,0c0.1,0,0.2,0,0.2,0c0.1,0,0.2,0,0.2,0c0.3,0,0.7,0.1,1.1,0.1c0.2,0,0.4,0,0.6,0
		c0.2,0,0.4,0,0.6,0c0.2,0,0.4,0,0.6,0c0.1,0,0.1,0,0.2,0l0.2,0c0.1,0,0.1,0,0.2,0C115.6,34.1,115.6,34.7,115.5,35.3"/>
	<path class="st0" d="M61.3,18.1l0.3-0.3c0.1-0.1,0.2-0.2,0.3-0.3l0.3-0.3c0.1-0.1,0.2-0.2,0.4-0.3c0.2-0.2,0.5-0.4,0.7-0.5l0.4-0.2
		c0.1-0.1,0.3-0.2,0.4-0.2l0.4-0.2c0.1-0.1,0.3-0.1,0.4-0.2l0.4-0.2c0.1-0.1,0.3-0.1,0.4-0.2l0.4-0.1c0.1,0,0.3-0.1,0.4-0.1l0.9-0.2
		l-0.2,0.2c0.1-0.4,0.2-0.8,0.4-1.2c0.2-0.4,0.3-0.8,0.5-1.1c0.1-0.2,0.2-0.4,0.3-0.5c0.1-0.2,0.2-0.4,0.3-0.5
		c0.2-0.3,0.5-0.7,0.7-1c0.1-0.2,0.3-0.3,0.4-0.5l0.2-0.2l0.2-0.2l0.2-0.2L71,9c0.2-0.1,0.3-0.3,0.5-0.4c0.2-0.1,0.3-0.3,0.5-0.4
		c0.2-0.1,0.3-0.2,0.5-0.3c0.2-0.1,0.4-0.2,0.6-0.3l0.6-0.3C74,7.2,74.4,7,74.8,6.9c0.4-0.1,0.8-0.2,1.2-0.3l0.6-0.1L77,6.4l0.3,0
		l0.6-0.1l0.6,0c0.4,0,0.8,0,1.3,0c0.4,0,0.8,0.1,1.2,0.1l1.2,0.2l1.2,0.2l-0.5,0.1c0.4-0.3,0.7-0.4,1-0.7c0.3-0.2,0.7-0.4,1.1-0.6
		c0.4-0.2,0.7-0.3,1.1-0.5c0.2-0.1,0.4-0.1,0.6-0.2c0.2-0.1,0.4-0.1,0.6-0.2c0.2-0.1,0.4-0.1,0.6-0.2c0.2-0.1,0.4-0.1,0.6-0.2
		c0.4-0.1,0.8-0.2,1.2-0.3c0.2,0,0.4-0.1,0.6-0.1L90.8,4C91.2,4,91.6,4,92,4c0.2,0,0.4,0,0.6,0c0.2,0,0.4,0,0.6,0l0.6,0.1l0.6,0.1
		c0.2,0,0.4,0.1,0.6,0.1c0.2,0,0.4,0.1,0.6,0.2c0.2,0.1,0.4,0.1,0.6,0.2l0.6,0.2c0.2,0.1,0.4,0.2,0.6,0.3c0.2,0.1,0.4,0.2,0.6,0.3
		l0.5,0.3C98.7,5.9,98.9,6,99,6.1c0.4,0.2,0.7,0.5,1,0.7c0.3,0.3,0.6,0.5,0.9,0.8L99.4,8c0.3-0.8,0.7-1.5,1.3-2.2
		c0.5-0.7,1.1-1.3,1.8-1.8c1.3-1,2.9-1.6,4.5-2c1.6-0.4,3.2-0.5,4.8-0.3c1.6,0.1,3.2,0.5,4.7,1.1c1.5,0.6,2.9,1.4,4.2,2.5
		c1.2,1.1,2.3,2.4,3,4c0.7,1.5,1.1,3.2,1.2,4.8c0,0.8,0,1.6-0.1,2.5c-0.1,0.8-0.3,1.6-0.5,2.4l-0.3-1.2c0.3,0.4,0.6,0.8,0.9,1.2
		l0.2,0.3l0.2,0.3c0.1,0.2,0.3,0.4,0.4,0.7c0.3,0.5,0.5,0.9,0.7,1.4c0.2,0.5,0.3,1,0.4,1.5c0,0.3,0.1,0.5,0.1,0.8c0,0.3,0,0.5,0,0.8
		l0,0.4l0,0.4c0,0.3-0.1,0.5-0.1,0.8c0,0.1-0.1,0.3-0.1,0.4l-0.1,0.4c-0.1,0.3-0.2,0.5-0.3,0.8c-0.1,0.2-0.2,0.5-0.4,0.7
		c-0.1,0.2-0.3,0.5-0.4,0.7c-0.1,0.2-0.3,0.4-0.5,0.6l-0.2,0.3c-0.1,0.1-0.2,0.2-0.3,0.3l-0.3,0.3l-0.3,0.3
		c-0.2,0.2-0.4,0.4-0.6,0.5c-0.2,0.2-0.4,0.3-0.6,0.5c-0.2,0.2-0.4,0.3-0.6,0.5c-0.2,0.2-0.4,0.3-0.6,0.4c-0.2,0.1-0.4,0.3-0.6,0.4
		c-0.2,0.1-0.4,0.3-0.6,0.4c-0.2,0.1-0.4,0.2-0.7,0.4c-0.2,0.1-0.4,0.2-0.7,0.3c-0.2,0.1-0.4,0.2-0.7,0.3c-0.4,0.2-0.9,0.4-1.4,0.5
		c-0.2,0.1-0.5,0.2-0.7,0.2l-0.7,0.2l1-1.2c0,0.2,0,0.2-0.1,0.4c0,0.1,0,0.2-0.1,0.3c0,0.2-0.1,0.4-0.1,0.6
		c-0.1,0.4-0.2,0.8-0.4,1.2c-0.1,0.4-0.3,0.8-0.5,1.1c-0.2,0.4-0.4,0.7-0.6,1.1c-0.2,0.4-0.4,0.7-0.7,1c-0.3,0.3-0.5,0.6-0.8,1
		l-0.4,0.4l-0.5,0.4c-0.3,0.3-0.7,0.5-1,0.7c-0.2,0.1-0.4,0.2-0.5,0.3c-0.2,0.1-0.4,0.2-0.6,0.3c-0.2,0.1-0.4,0.2-0.6,0.3l-0.6,0.2
		c-0.2,0.1-0.4,0.1-0.6,0.2c-0.2,0.1-0.4,0.1-0.6,0.2l-0.6,0.1c-0.2,0-0.4,0.1-0.6,0.1c-0.4,0.1-0.8,0.1-1.2,0.1c-0.2,0-0.4,0-0.6,0
		l-0.6,0c-0.4,0-0.8,0-1.2,0l-1.2-0.1l1.5-1c-0.1,0.2-0.1,0.3-0.2,0.5l-0.2,0.5c-0.1,0.3-0.2,0.6-0.3,0.9c-0.2,0.6-0.5,1.2-0.8,1.8
		c-0.1,0.3-0.3,0.6-0.4,0.9c-0.2,0.3-0.3,0.6-0.5,0.8c-0.2,0.3-0.3,0.6-0.5,0.8c-0.2,0.3-0.4,0.5-0.6,0.8c-0.4,0.5-0.8,1-1.2,1.5
		c-0.4,0.5-0.9,0.9-1.4,1.4c-0.3,0.2-0.5,0.4-0.8,0.6c-0.3,0.2-0.6,0.4-0.9,0.6c-0.3,0.2-0.6,0.3-0.9,0.5c-0.3,0.1-0.6,0.3-1,0.4
		l-1,0.3c-0.3,0.1-0.7,0.1-1,0.2c-0.7,0.1-1.4,0.1-2.1,0.1l-0.5,0L89,56.2l-0.5-0.1c-0.2,0-0.3,0-0.5-0.1l-1-0.2
		c-0.2,0-0.3-0.1-0.5-0.1l-0.5-0.2c-0.6-0.2-1.2-0.5-1.8-0.7c-0.3-0.1-0.6-0.3-0.9-0.4l-0.9-0.5c-0.5-0.3-1.1-0.7-1.6-1l-1.5-1.1
		l1.3,0.1c-0.1,0.1-0.3,0.1-0.4,0.2L80,52.3c-0.2,0.1-0.5,0.2-0.7,0.3c-0.5,0.2-1,0.4-1.5,0.5c-0.3,0.1-0.5,0.2-0.8,0.2
		c-0.3,0.1-0.5,0.1-0.8,0.2c-0.5,0.1-1,0.2-1.6,0.3c-0.5,0.1-1.1,0.1-1.6,0.2c-0.5,0-1.1,0-1.6,0c-0.3,0-0.5,0-0.8-0.1l-0.8-0.1
		c-0.3-0.1-0.5-0.1-0.8-0.2c-0.3-0.1-0.5-0.1-0.8-0.2c-0.3-0.1-0.5-0.2-0.8-0.3c-0.1-0.1-0.3-0.1-0.4-0.2l-0.4-0.2
		c-0.2-0.1-0.5-0.2-0.7-0.4c-0.2-0.1-0.5-0.3-0.7-0.4l-0.7-0.5c-0.2-0.2-0.4-0.4-0.6-0.5c-0.1-0.1-0.2-0.2-0.3-0.3l-0.3-0.3
		l-0.3-0.3c-0.1-0.1-0.2-0.2-0.3-0.3l-0.5-0.6c-0.2-0.2-0.3-0.4-0.5-0.7l-0.2-0.3l-0.1-0.2l-0.1-0.2L61,47.2
		c-0.1-0.2-0.2-0.5-0.4-0.7l-0.3-0.7c-0.2-0.5-0.4-1-0.6-1.5l1.5,0.4l-0.6,0.5l-0.3,0.3L60,45.7c-0.2,0.2-0.5,0.3-0.7,0.5l-0.7,0.4
		c-0.2,0.1-0.5,0.2-0.8,0.3c-0.1,0.1-0.3,0.1-0.4,0.2L57,47.2l-0.4,0.1c-0.1,0-0.3,0.1-0.4,0.1c-0.3,0.1-0.5,0.1-0.8,0.2l-0.4,0.1
		l-0.2,0l-0.2,0l-0.4,0l-0.2,0l-0.2,0c-0.3,0-0.6,0-0.8-0.1c-0.3,0-0.6-0.1-0.8-0.1l-0.4-0.1l-0.4-0.1c-0.3-0.1-0.5-0.2-0.8-0.3
		c-0.1-0.1-0.3-0.1-0.4-0.2c-0.1-0.1-0.3-0.1-0.4-0.2c-0.1-0.1-0.3-0.1-0.4-0.2l-0.4-0.3l0.8,0.1l-0.4,0.2c-0.1,0.1-0.3,0.1-0.4,0.1
		c-0.1,0-0.1,0-0.2,0l-0.2,0c-0.1,0-0.3,0-0.4,0l-0.4,0l-0.4,0c-0.1,0-0.3,0-0.4-0.1c-0.1,0-0.3,0-0.4-0.1c-0.1,0-0.3-0.1-0.4-0.1
		l-0.4-0.1l-0.4-0.1c-0.1,0-0.2-0.1-0.4-0.1c-0.2-0.1-0.5-0.2-0.7-0.3c-0.1,0-0.2-0.1-0.3-0.2c-0.1-0.1-0.2-0.1-0.3-0.2l0.1,0.1
		c-0.9-0.2-1.9-0.5-2.9-0.7c-1-0.2-1.9-0.5-2.9-0.7l-1.4-0.3c-0.5-0.1-1-0.2-1.4-0.3l-1.4-0.3c-0.5-0.1-0.9-0.2-1.4-0.3l-0.7-0.1
		l-0.7-0.1c-0.5-0.1-1-0.2-1.4-0.3l-0.7-0.1c-0.2,0-0.5-0.1-0.7-0.1l-0.7-0.1l-0.4,0c-0.1,0-0.2,0-0.4,0c-0.5,0-1,0-1.5,0l-1.5,0.1
		c-0.5,0-1,0.1-1.5,0.1l-1.5,0.1l1.5-0.2c0.5-0.1,1-0.2,1.5-0.2l1.5-0.1c0.5,0,1,0,1.5-0.1c0.1,0,0.2,0,0.4,0l0.4,0l0.7,0
		c0.2,0,0.5,0,0.7,0.1l0.7,0.1c0.5,0.1,1,0.1,1.5,0.2l0.7,0.1l0.7,0.1c0.5,0.1,1,0.1,1.5,0.2l1.5,0.2c0.5,0.1,1,0.2,1.5,0.2l1.4,0.3
		c1,0.2,1.9,0.4,2.9,0.5c1,0.2,1.9,0.4,2.9,0.6l0.1,0l0.1,0c0.1,0,0.2,0.1,0.3,0.1c0.1,0,0.2,0.1,0.3,0.1c0.2,0.1,0.4,0.2,0.6,0.2
		c0.1,0,0.2,0.1,0.3,0.1L46,45l0.3,0.1c0.1,0,0.2,0,0.3,0.1c0.1,0,0.2,0,0.3,0c0.1,0,0.2,0,0.3,0l0.3,0l0.3,0c0.1,0,0.2,0,0.3,0
		l0.1,0c0,0,0.1,0,0.1,0c0.1,0,0.2,0,0.3-0.1c0.1,0,0.2-0.1,0.2-0.1l0.4-0.2l0.4,0.3l0.3,0.2c0.1,0.1,0.2,0.1,0.3,0.2
		c0.1,0.1,0.2,0.1,0.3,0.1c0.1,0,0.2,0.1,0.3,0.1c0.2,0.1,0.4,0.2,0.7,0.2l0.3,0.1l0.3,0.1c0.2,0,0.5,0.1,0.7,0.1c0.2,0,0.5,0,0.7,0
		l0.2,0l0.2,0l0.3,0l0.2,0l0.2,0l0.3-0.1c0.2,0,0.5-0.1,0.7-0.2c0.1,0,0.2-0.1,0.3-0.1l0.3-0.1l0.3-0.1c0.1,0,0.2-0.1,0.3-0.1
		c0.2-0.1,0.4-0.2,0.6-0.3l0.6-0.4c0.2-0.1,0.4-0.3,0.6-0.4l0.3-0.2l0.3-0.2l0.5-0.5l1-0.8l0.5,1.2c0.2,0.4,0.4,0.9,0.6,1.3l0.3,0.6
		c0.1,0.2,0.2,0.4,0.3,0.6l0.4,0.6l0.1,0.2l0.1,0.1l0.2,0.3c0.1,0.2,0.3,0.4,0.4,0.6l0.4,0.5c0.1,0.1,0.2,0.2,0.2,0.2l0.2,0.2
		l0.2,0.2c0.1,0.1,0.2,0.1,0.3,0.2c0.2,0.1,0.3,0.3,0.5,0.4l0.6,0.4c0.2,0.1,0.4,0.2,0.6,0.3c0.2,0.1,0.4,0.2,0.6,0.3l0.3,0.1
		c0.1,0,0.2,0.1,0.3,0.1c0.2,0.1,0.4,0.2,0.6,0.2c0.2,0.1,0.4,0.1,0.7,0.2l0.7,0.1l0.7,0.1l0.7,0c0.5,0,0.9,0,1.4,0
		c0.5,0,0.9-0.1,1.4-0.2c0.5-0.1,0.9-0.2,1.4-0.3c0.2-0.1,0.5-0.1,0.7-0.2c0.2-0.1,0.4-0.1,0.7-0.2c0.4-0.1,0.9-0.3,1.3-0.5
		c0.2-0.1,0.4-0.2,0.6-0.3l0.3-0.1c0.1,0,0.2-0.1,0.3-0.1l0.7-0.4l0.7,0.5l1.4,1c0.5,0.3,1,0.6,1.5,0.9l0.8,0.4
		c0.3,0.1,0.5,0.3,0.8,0.4c0.5,0.2,1,0.5,1.6,0.6l0.4,0.1c0.1,0,0.3,0.1,0.4,0.1l0.8,0.2c0.1,0,0.3,0,0.4,0.1l0.4,0l0.4,0l0.4,0
		c0.5,0,1.1,0,1.6-0.1l0.8-0.2l0.7-0.2c0.2-0.1,0.5-0.2,0.7-0.3c0.2-0.1,0.5-0.3,0.7-0.4c0.2-0.1,0.4-0.3,0.7-0.4
		c0.2-0.1,0.4-0.3,0.6-0.5c0.4-0.3,0.8-0.7,1.2-1.1c0.4-0.4,0.7-0.8,1.1-1.3c0.2-0.2,0.3-0.5,0.5-0.7c0.2-0.2,0.3-0.5,0.4-0.7
		c0.1-0.2,0.3-0.5,0.4-0.7c0.1-0.3,0.3-0.5,0.4-0.8c0.3-0.5,0.5-1,0.7-1.6c0.1-0.3,0.2-0.5,0.3-0.8l0.1-0.4c0-0.1,0.1-0.3,0.1-0.4
		l0.3-1.1l1.2,0.1l1,0.1c0.3,0,0.7,0,1,0c0.3,0,0.7,0,1,0c0.3,0,0.7-0.1,1-0.1c0.2,0,0.3,0,0.5-0.1l0.5-0.1c0.2,0,0.3-0.1,0.5-0.1
		c0.2,0,0.3-0.1,0.4-0.1l0.4-0.2l0.4-0.2c0.1-0.1,0.3-0.1,0.4-0.2c0.1-0.1,0.3-0.2,0.4-0.2c0.3-0.2,0.5-0.4,0.7-0.5l0.3-0.3l0.3-0.3
		c0.2-0.2,0.4-0.5,0.6-0.7c0.2-0.2,0.4-0.5,0.5-0.8c0.2-0.3,0.3-0.6,0.5-0.8c0.1-0.3,0.3-0.6,0.4-0.9c0.1-0.3,0.2-0.6,0.3-0.9
		c0-0.2,0.1-0.3,0.1-0.5l0-0.2l0-0.2l0.1-0.9l0.9-0.3l0.6-0.2c0.2-0.1,0.4-0.1,0.6-0.2c0.4-0.1,0.8-0.3,1.2-0.5
		c0.2-0.1,0.4-0.2,0.6-0.3c0.2-0.1,0.4-0.2,0.6-0.3c0.2-0.1,0.4-0.2,0.6-0.3c0.2-0.1,0.4-0.2,0.5-0.3c0.2-0.1,0.4-0.2,0.5-0.3
		c0.2-0.1,0.3-0.2,0.5-0.4c0.2-0.1,0.3-0.2,0.5-0.4c0.2-0.1,0.3-0.3,0.5-0.4c0.2-0.1,0.3-0.3,0.4-0.4l0.2-0.2l0.2-0.2
		c0.1-0.1,0.1-0.1,0.2-0.2l0.2-0.2c0.1-0.2,0.2-0.3,0.3-0.5c0.1-0.2,0.2-0.3,0.3-0.5c0.1-0.2,0.2-0.3,0.3-0.5
		c0.1-0.2,0.1-0.4,0.2-0.5l0.1-0.3c0-0.1,0.1-0.2,0.1-0.3c0-0.2,0.1-0.4,0.1-0.5l0-0.3l0-0.3c0-0.2,0-0.4,0-0.6
		c0-0.2-0.1-0.4-0.1-0.6c-0.1-0.4-0.2-0.7-0.3-1.1c-0.1-0.4-0.3-0.7-0.5-1.1c-0.1-0.2-0.2-0.3-0.3-0.5l-0.2-0.3l-0.2-0.3
		c-0.2-0.3-0.5-0.7-0.8-1l-0.5-0.6l0.2-0.6c0.2-0.7,0.3-1.3,0.4-2c0.1-0.7,0.1-1.4,0.1-2c0-1.3-0.3-2.7-0.9-3.9
		c-0.5-1.2-1.4-2.3-2.4-3.2c-1-0.9-2.2-1.6-3.5-2.2c-1.3-0.5-2.6-0.9-4-1c-1.4-0.2-2.8-0.1-4.1,0.2c-1.3,0.3-2.6,0.8-3.7,1.6
		c-1.1,0.8-1.9,1.8-2.5,3l-0.6,1.3l-1-1c-0.3-0.2-0.5-0.5-0.8-0.7c-0.3-0.2-0.5-0.5-0.8-0.7c-0.1-0.1-0.3-0.2-0.4-0.3l-0.5-0.3
		c-0.1-0.1-0.3-0.2-0.5-0.3c-0.2-0.1-0.3-0.2-0.5-0.2l-0.5-0.2c-0.2-0.1-0.3-0.1-0.5-0.2c-0.2-0.1-0.3-0.1-0.5-0.2
		c-0.2,0-0.3-0.1-0.5-0.1l-0.5-0.1l-0.5-0.1c-0.2,0-0.4,0-0.5-0.1c-0.2,0-0.4,0-0.5,0c-0.4,0-0.7,0-1.1,0l-0.5,0l-0.5,0.1
		c-0.4,0.1-0.7,0.1-1.1,0.2c-0.2,0-0.4,0.1-0.5,0.1c-0.2,0-0.4,0.1-0.5,0.1c-0.2,0-0.4,0.1-0.5,0.2c-0.2,0.1-0.3,0.1-0.5,0.2
		c-0.3,0.1-0.7,0.3-1,0.4c-0.3,0.2-0.7,0.3-1,0.5C84.3,7.7,84,7.8,83.7,8l-0.3,0.2l-0.3-0.1L82,7.8l-1.2-0.2c-0.4,0-0.8-0.1-1.2-0.1
		c-0.4,0-0.8-0.1-1.2-0.1l-0.6,0l-0.6,0l-0.3,0l-0.3,0l-0.6,0.1c-0.4,0.1-0.8,0.1-1.1,0.3c-0.4,0.1-0.7,0.2-1.1,0.4l-0.5,0.2
		c-0.2,0.1-0.3,0.2-0.5,0.3c-0.3,0.2-0.7,0.4-1,0.6c-0.2,0.1-0.3,0.2-0.5,0.3l-0.2,0.2L71,10l-0.2,0.2l-0.2,0.2
		c-0.1,0.1-0.3,0.3-0.4,0.4c-0.3,0.3-0.5,0.6-0.8,0.9c-0.1,0.2-0.2,0.3-0.3,0.5c-0.1,0.2-0.2,0.3-0.3,0.5c-0.2,0.3-0.4,0.7-0.6,1
		c-0.2,0.4-0.3,0.7-0.4,1.1l0,0.1l-0.1,0l-0.9,0.2c-0.1,0-0.3,0.1-0.4,0.1l-0.4,0.1c-0.1,0-0.3,0.1-0.4,0.1L65,15.7
		c-0.1,0-0.3,0.1-0.4,0.2L64.2,16c-0.1,0.1-0.3,0.1-0.4,0.2l-0.4,0.2c-0.3,0.1-0.5,0.3-0.8,0.5c-0.1,0.1-0.2,0.2-0.4,0.3l-0.4,0.3
		c-0.1,0.1-0.2,0.2-0.3,0.3L61.3,18.1z"/>
	<path class="st0" d="M124.8,22.9c0,0-0.1-0.2-0.3-0.6c-0.1-0.2-0.2-0.4-0.4-0.7c-0.2-0.2-0.3-0.5-0.5-0.8c-0.2-0.3-0.5-0.5-0.8-0.8
		c-0.3-0.3-0.6-0.5-1-0.8c-0.4-0.2-0.7-0.5-1.1-0.6c-0.1-0.1-0.2-0.1-0.3-0.1c-0.1,0-0.2-0.1-0.3-0.1c-0.1,0-0.2-0.1-0.3-0.1
		c-0.1,0-0.2-0.1-0.3-0.1l-0.3-0.1c-0.1,0-0.1,0-0.2-0.1l-0.2,0c-0.2-0.1-0.4-0.1-0.7-0.2c-0.1,0-0.2-0.1-0.3-0.1l-0.2,0
		c-0.1,0-0.1,0-0.2,0c-0.2,0-0.5-0.1-0.7-0.1c-0.2,0-0.4-0.1-0.7-0.1c-0.2,0-0.4-0.1-0.6-0.1c-0.4-0.1-0.8-0.1-1.2-0.2
		c-0.1,0-0.2,0-0.3,0c-0.1,0-0.2,0-0.3,0c-0.2,0-0.3,0-0.5-0.1c-0.3-0.1-0.6-0.1-0.8-0.1c-0.4-0.1-0.7-0.1-0.7-0.1s0.2-0.1,0.7-0.2
		c0.2-0.1,0.5-0.1,0.8-0.2c0.2,0,0.3-0.1,0.5-0.1c0.2,0,0.4-0.1,0.6-0.1c0.4,0,0.8-0.1,1.3-0.1c0.1,0,0.2,0,0.3,0c0.1,0,0.2,0,0.4,0
		c0.2,0,0.5,0,0.7,0c0.5,0,1,0.1,1.5,0.2c0.3,0,0.5,0.1,0.8,0.2l0.2,0.1c0.1,0,0.1,0,0.2,0.1l0.4,0.1c0.1,0,0.3,0.1,0.4,0.1
		c0.1,0.1,0.3,0.1,0.4,0.2c0.1,0.1,0.2,0.1,0.4,0.2c0.1,0.1,0.2,0.1,0.4,0.2c0.1,0.1,0.2,0.1,0.4,0.2l0.1,0.1l0.1,0.1
		c0.1,0,0.1,0.1,0.2,0.1c0.1,0.1,0.2,0.2,0.3,0.2c0.1,0.1,0.2,0.2,0.3,0.3c0.4,0.3,0.7,0.7,1,1.1c0.3,0.4,0.5,0.8,0.6,1.1
		c0.1,0.4,0.2,0.7,0.3,1c0.1,0.3,0.1,0.6,0.1,0.8c0,0.2,0,0.4,0,0.5C124.8,22.9,124.8,22.9,124.8,22.9"/>
</g>
<path class="st0" d="M31.6,42.8"/>
<path class="st0" d="M58,12.7l0.6-0.1l0-0.4l-0.6,0.1c0.1-0.9,0.2-1.6,0.2-1.6L56.9,11l-0.2,1.4l-0.3,0l0,0.4l0.3,0l-0.4,2.9
	c0,0.2,0,0.4,0,0.5c0.1,0.6,0.4,1.1,1.1,1c0.3,0,0.7-0.2,0.9-1c-0.1,0-0.2,0-0.2,0.1c-0.3,0-0.4-0.1-0.4-0.3c0-0.1,0-0.2,0-0.3
	L58,12.7z M53.5,15.8c0-0.2-0.1-0.3-0.3-0.3c0.3-0.6,0.5-1.2,0.6-1.9c0.2,1.5,0.3,1.8,0.4,2.3c0.1,0.7-0.3,0.9-0.8,1
	c-0.4,0-0.6-0.2-0.6-0.6c0.1,0.1,0.2,0.1,0.3,0.1C53.4,16.3,53.5,16,53.5,15.8 M56.3,15.5c-0.2,0.2-0.4,0.4-0.6,0.5
	c0-0.1,0-0.2,0-0.4c-0.1-0.6-0.2-1-0.5-3.5l-1.4,0.3c-0.2,1-0.5,2-0.9,3c-0.2,0.1-0.5,0.5-0.4,0.9c0.1,0.6,0.5,1.2,1.5,1.1
	c0.5,0,1.1-0.3,1.5-0.7c0.4-0.3,0.9-0.7,1.4-1.3L56.3,15.5z M50.4,13L50,16.1c0,0.2,0,0.5,0,0.6c0.1,0.8,0.6,1.1,1.1,1.1
	c0.5,0,1.5-0.3,1.9-2l-0.4,0c-0.1,0.5-0.4,0.9-0.8,0.9c-0.3,0-0.4-0.1-0.4-0.3c0-0.1,0-0.2,0-0.3l0.4-3.3L50.4,13z M50.5,11.7
	c0,0.4,0.4,0.7,0.8,0.7c0.4,0,0.7-0.4,0.7-0.8c0-0.4-0.4-0.7-0.8-0.7C50.7,10.9,50.4,11.2,50.5,11.7 M48,11.4l-0.6,4.9
	c0,0.2,0,0.5,0,0.6c0.1,0.8,0.6,1.1,1.1,1.1c0.5,0,1.5-0.3,1.9-2l-0.4,0c-0.1,0.5-0.4,0.9-0.8,0.9c-0.3,0-0.4-0.1-0.4-0.3
	c0-0.1,0-0.2,0-0.3l0.6-5.3L48,11.4z M44.8,14c0.3,0,0.4,0.2,0.4,0.3L45,16.6c-0.1,0.6-0.4,0.9-0.7,0.9c-0.2,0-0.5,0-0.6-0.7
	C43.6,15.9,44,14.1,44.8,14 M45.3,13.4l-0.1,0.5l0-0.1c0-0.3-0.3-0.5-0.8-0.4c-1.7,0.2-2.3,2.3-2.2,3.6c0.1,1.1,0.8,1.5,1.4,1.4
	c0.7-0.1,1.1-0.5,1.4-1c0.1,0.6,0.5,0.8,1,0.8c0.5,0,1.4-0.3,1.8-2l-0.4,0c-0.1,0.5-0.3,0.9-0.7,1c-0.3,0-0.4-0.1-0.4-0.4
	c0-0.1,0-0.2,0-0.3l0.4-3.3L45.3,13.4z M40.2,13.9l-0.4,3.2c0,0.2,0,0.5,0,0.6c0.1,0.8,0.6,1.1,1.1,1.1c0.5,0,1.5-0.3,1.9-2l-0.4,0
	c-0.1,0.5-0.4,0.9-0.8,0.9c-0.3,0-0.4-0.1-0.4-0.3c0-0.1,0-0.2,0-0.3l0.4-3.3L40.2,13.9z M40.3,12.6c0,0.4,0.4,0.7,0.8,0.7
	c0.4,0,0.7-0.4,0.7-0.8c0-0.4-0.4-0.7-0.8-0.7C40.5,11.8,40.2,12.2,40.3,12.6 M38.7,15.4c0.1,0.1,0.2,0.1,0.3,0.1
	c0.3,0,0.5-0.3,0.4-0.8c0-0.4-0.3-0.9-1.2-0.8c-2,0.2-2.4,2.6-2.3,3.7c0.1,1.1,0.7,1.5,1.6,1.4c1.3-0.1,2-1.1,2.5-2l-0.3,0
	c-0.4,0.6-0.9,1.1-1.6,1.1c-0.5,0-0.7-0.1-0.8-0.7c-0.1-1.1,0.4-2.9,1-2.9c0.2,0,0.3,0.1,0.3,0.4C38.7,15,38.7,15.2,38.7,15.4
	 M35,15.2c0.1,0.8-0.5,1.6-1.3,1.7c0.1-1,0.5-2,1-2.1C34.9,14.8,35,15,35,15.2 M33.7,17.8c0-0.1,0-0.3,0-0.4c1.1-0.2,2.1-1.1,2-2.2
	c0-0.5-0.3-0.9-1.1-0.8c-2,0.2-2.4,2.6-2.3,3.7c0.1,1.1,0.7,1.5,1.6,1.4c1.3-0.1,2-1.1,2.5-2l-0.3,0c-0.4,0.6-0.9,1.1-1.6,1.1
	C34,18.6,33.8,18.4,33.7,17.8 M29.6,18.9c-0.2,0-0.3-0.1-0.4-0.2l0.3-2.7c0.2-0.3,0.4-0.5,0.6-0.5c0.2,0,0.5,0,0.6,0.8
	C30.8,17.1,30.6,18.9,29.6,18.9 M28.3,14.6l-0.9,7.7l1.4-0.5l0.3-2.4c0.1,0.2,0.4,0.3,0.9,0.3c1.9-0.2,2.2-2.3,2.1-3.6
	c-0.1-1.1-0.7-1.5-1.3-1.4c-0.5,0-0.8,0.3-1.1,0.5l0.1-0.7L28.3,14.6z M25.1,18.4c0-0.2-0.1-0.3-0.3-0.3c0.3-0.6,0.5-1.2,0.6-1.9
	c0.2,1.5,0.3,1.8,0.4,2.3c0.1,0.7-0.3,0.9-0.8,1c-0.4,0-0.6-0.2-0.6-0.6c0.1,0.1,0.2,0.1,0.3,0.1C25,18.9,25.1,18.6,25.1,18.4
	 M27.9,18.1c-0.2,0.2-0.4,0.4-0.6,0.5c0-0.1,0-0.2,0-0.4c-0.1-0.6-0.2-1-0.5-3.5l-1.4,0.3c-0.2,1-0.5,2-0.9,3
	c-0.2,0.1-0.5,0.5-0.4,0.9c0.1,0.6,0.5,1.2,1.5,1.1c0.5,0,1.1-0.3,1.5-0.7c0.4-0.3,0.9-0.7,1.4-1.3L27.9,18.1z"/>
<path class="st0" d="M50.3,4.8l0.6-0.1l0-0.4l-0.6,0.1c0.1-0.9,0.2-1.6,0.2-1.6l-1.4,0.3L49,4.6l-0.3,0l0,0.4l0.3,0l-0.4,2.9
	c0,0.2,0,0.4,0,0.5c0.1,0.6,0.4,1.1,1.1,1c0.3,0,0.7-0.2,0.9-1c-0.1,0-0.2,0-0.2,0.1c-0.3,0-0.4-0.1-0.4-0.3c0-0.1,0-0.2,0-0.3
	L50.3,4.8z M47.5,5.5c0.1,0.8-0.5,1.6-1.3,1.7c0.1-1,0.5-2,1-2.1C47.4,5.1,47.4,5.3,47.5,5.5 M46.2,8.1c0-0.1,0-0.3,0-0.4
	c1.1-0.2,2.1-1.1,2-2.2c0-0.5-0.3-0.9-1.1-0.8c-2,0.2-2.4,2.6-2.3,3.7c0.1,1.1,0.7,1.5,1.6,1.4c1.3-0.1,2-1.1,2.5-2l-0.3,0
	c-0.4,0.6-0.9,1.1-1.6,1.1C46.5,8.9,46.2,8.8,46.2,8.1 M41.6,5.2L41,10.2l1.4-0.1l0.4-3.7c0.2-0.2,0.4-0.4,0.7-0.4
	c0.3,0,0.1,0.6,0.6,0.6c0.5,0,0.7-0.4,0.6-0.8C44.7,5.3,44.5,5,44,5c-0.5,0-0.8,0.4-1.1,0.7L43,5.1L41.6,5.2z M38.6,6.1
	c0.3,0,0.4,0.2,0.4,0.3l-0.3,2.2c-0.1,0.6-0.4,0.9-0.7,0.9c-0.2,0-0.5,0-0.6-0.7C37.4,7.9,37.8,6.2,38.6,6.1 M39.1,5.5L39.1,6l0-0.1
	c0-0.3-0.3-0.5-0.8-0.4c-1.7,0.2-2.3,2.3-2.2,3.6c0.1,1.1,0.8,1.5,1.4,1.4c0.7-0.1,1.1-0.5,1.4-1c0.1,0.6,0.5,0.8,1,0.8
	c0.5,0,1.4-0.3,1.8-2l-0.4,0c-0.1,0.5-0.3,0.9-0.7,1c-0.3,0-0.4-0.1-0.4-0.4c0-0.1,0-0.2,0-0.3l0.4-3.3L39.1,5.5z M32.7,12.3
	c0-0.4,0.4-0.7,0.9-0.9l0,0.3c-0.1,0.6-0.3,0.9-0.5,0.9C32.9,12.6,32.7,12.4,32.7,12.3 M33.7,6.5c0.3,0,0.4,0.2,0.4,0.3l-0.3,2.3
	c-0.1,0.5-0.4,0.8-0.7,0.8c-0.2,0-0.5,0-0.6-0.7C32.5,8.4,32.9,6.6,33.7,6.5 M34.2,5.9l-0.1,0.5l0-0.1c0-0.3-0.3-0.5-0.8-0.4
	c-1.7,0.2-2.3,2.3-2.2,3.6c0.1,1.1,0.8,1.5,1.4,1.4c0.5,0,0.9-0.3,1.1-0.6l-0.1,0.5c-0.7,0.3-1.5,0.8-1.4,1.6
	c0.1,0.6,0.6,0.9,1.2,0.8c0.6-0.1,1.4-0.4,1.6-1.8l0.1-0.7c0.6-0.2,1.3-0.7,1.5-2l-0.4,0c-0.2,0.9-0.5,1.2-1.1,1.5l0.5-4.6L34.2,5.9
	z M29.1,6.4l-0.4,3.2c0,0.2,0,0.5,0,0.6c0.1,0.8,0.6,1.1,1.1,1.1c0.5,0,1.5-0.3,1.9-2l-0.4,0c-0.1,0.5-0.4,0.9-0.8,0.9
	c-0.3,0-0.4-0.1-0.4-0.3c0-0.1,0-0.2,0-0.3l0.4-3.3L29.1,6.4z M29.2,5.1c0,0.4,0.4,0.7,0.8,0.7c0.4,0,0.7-0.4,0.7-0.8
	c0-0.4-0.4-0.7-0.8-0.7C29.4,4.3,29.1,4.7,29.2,5.1 M25.9,9.8c0-0.2-0.1-0.3-0.3-0.3c0.3-0.6,0.5-1.2,0.6-1.9
	c0.2,1.5,0.3,1.8,0.4,2.3c0.1,0.7-0.3,0.9-0.8,1c-0.4,0-0.6-0.2-0.6-0.6c0.1,0.1,0.2,0.1,0.3,0.1C25.8,10.3,26,10,25.9,9.8
	 M28.7,9.6c-0.2,0.2-0.4,0.4-0.6,0.5c0-0.1,0-0.2,0-0.4c-0.1-0.6-0.2-1-0.5-3.5l-1.4,0.3c-0.2,1-0.5,2-0.9,3
	c-0.2,0.1-0.5,0.5-0.4,0.9c0.1,0.6,0.5,1.2,1.5,1.1c0.5,0,1.1-0.3,1.5-0.7c0.4-0.3,0.9-0.7,1.4-1.3L28.7,9.6z M24.4,8.8l-1.9,0.2
	l-0.1,0.8l1.9-0.2L24.4,8.8z M21.3,7.9c0.1,0.8-0.5,1.6-1.3,1.7c0.1-0.9,0.5-2,1-2.1C21.2,7.6,21.3,7.7,21.3,7.9 M20,10.4
	c0-0.1,0-0.2,0-0.3c1.1-0.2,2.1-1.1,2-2.2c0-0.5-0.3-0.9-1.1-0.8c-2,0.2-2.4,2.6-2.3,3.7c0.1,1.1,0.7,1.5,1.6,1.4
	c0.8-0.1,1.4-0.5,1.5-1.6c-0.3,0.3-0.7,0.6-1.1,0.6C20.4,11.2,20.1,11,20,10.4 M15.7,8.5c0.1,0.8-0.5,1.6-1.3,1.7
	c0.1-0.9,0.5-2,1-2.1C15.6,8.1,15.7,8.2,15.7,8.5 M14.4,10.9c0-0.1,0-0.2,0-0.3c1.1-0.2,2.1-1.1,2-2.2c0-0.5-0.3-0.9-1.1-0.8
	c-2,0.2-2.4,2.6-2.3,3.7c0.1,1.1,0.7,1.5,1.6,1.4c0.8-0.1,1.4-0.5,1.5-1.6c-0.3,0.3-0.7,0.6-1.1,0.6C14.7,11.7,14.5,11.5,14.4,10.9
	 M8.5,7l-0.7,6.2l1.4-0.1l0-0.4c0.4,0.3,0.9,0.4,1.2,0.4c1.4-0.1,2.5-2.6,2.2-4.8c-0.1-1.5-1-2.7-2.8-2.5c-2,0.2-3.5,1.6-3.4,2.9
	C6.6,9.3,7,9.5,7.6,9.4c0-0.1-0.1-0.2-0.2-0.6C7.3,7.3,8.3,6.3,9.7,6.2c0.8-0.1,1.5,0.4,1.6,1.7c0.2,1.9-0.3,4.3-1.5,4.4
	c-0.2,0-0.4,0-0.6-0.1l0.7-5.5L8.5,7z"/>
</svg>
