<?xml version="1.0"?>
<svg xmlns="http://www.w3.org/2000/svg" height="512px" viewBox="0 -76 512 512" width="512px"><path d="m462 0h-412c-27.570312 0-50 22.429688-50 50v260c0 27.570312 22.429688 50 50 50h412c27.570312 0 50-22.429688 50-50v-260c0-27.570312-22.429688-50-50-50zm30 310c0 16.542969-13.457031 30-30 30h-412c-16.542969 0-30-13.457031-30-30v-20h472zm0-40h-472v-60h472zm0-80h-472v-140c0-16.542969 13.457031-30 30-30h412c16.542969 0 30 13.457031 30 30zm0 0" fill="#ffffff"/><path d="m262 72h150c5.511719 0 10-4.488281 10-10s-4.488281-10-10-10h-150c-5.511719 0-10 4.488281-10 10s4.488281 10 10 10zm0 0" fill="#ffffff"/><path d="m452 72c5.511719 0 10-4.488281 10-10s-4.488281-10-10-10-10 4.488281-10 10 4.488281 10 10 10zm0 0" fill="#ffffff"/><path d="m462 92h-60c-5.523438 0-10 4.476562-10 10s4.476562 10 10 10h60c5.523438 0 10-4.476562 10-10s-4.476562-10-10-10zm0 0" fill="#ffffff"/><path d="m362 92h-100c-5.523438 0-10 4.476562-10 10s4.476562 10 10 10h100c5.523438 0 10-4.476562 10-10s-4.476562-10-10-10zm0 0" fill="#ffffff"/><path d="m462 132h-20c-5.511719 0-10 4.488281-10 10s4.488281 10 10 10h20c5.511719 0 10-4.488281 10-10s-4.488281-10-10-10zm0 0" fill="#ffffff"/><path d="m402 132h-20c-5.511719 0-10 4.488281-10 10s4.488281 10 10 10h20c5.511719 0 10-4.488281 10-10s-4.488281-10-10-10zm0 0" fill="#ffffff"/><path d="m282 132h-20c-5.511719 0-10 4.488281-10 10s4.488281 10 10 10h20c5.511719 0 10-4.488281 10-10s-4.488281-10-10-10zm0 0" fill="#ffffff"/><path d="m342 132h-20c-5.511719 0-10 4.488281-10 10s4.488281 10 10 10h20c5.511719 0 10-4.488281 10-10s-4.488281-10-10-10zm0 0" fill="#ffffff"/><path d="m182.496094 42.398438c-4.199219-3.589844-10.511719-3.09375-14.097656 1.105468l-94 110c-3.589844 4.195313-3.09375 10.511719 1.105468 14.097656 1.882813 1.609376 4.195313 2.398438 6.492188 2.398438 2.824218 0 5.628906-1.1875 7.605468-3.503906l94-110c3.589844-4.199219 3.09375-10.511719-1.105468-14.097656zm0 0" fill="#ffffff"/><path d="m110 70c0-16.542969-13.457031-30-30-30s-30 13.457031-30 30 13.457031 30 30 30 30-13.457031 30-30zm-40 0c0-5.515625 4.484375-10 10-10s10 4.484375 10 10-4.484375 10-10 10-10-4.484375-10-10zm0 0" fill="#ffffff"/><path d="m179 110c-16.542969 0-30 13.457031-30 30s13.457031 30 30 30 30-13.457031 30-30-13.457031-30-30-30zm0 40c-5.515625 0-10-4.484375-10-10s4.484375-10 10-10 10 4.484375 10 10-4.484375 10-10 10zm0 0" fill="#ffffff"/></svg>
