<svg width="138" height="285" viewBox="0 0 138 285" fill="none" xmlns="http://www.w3.org/2000/svg">
<path fill-rule="evenodd" clip-rule="evenodd" d="M136.038 267.436C136.038 276.543 128.622 283.924 119.474 283.924H18.5443C9.39642 283.924 1.98096 276.543 1.98096 267.436V18.0531C1.98096 8.94653 9.39642 1.5658 18.5443 1.5658H119.474C128.622 1.5658 136.038 8.94653 136.038 18.0531V267.436Z" fill="#FDFDFD" stroke="#223FD5" stroke-width="2"/>
<path d="M126.685 38.5974H11.2609V243.848H126.685V38.5974Z" fill="white" stroke="#223FD5"/>
<path fill-rule="evenodd" clip-rule="evenodd" d="M81.3835 28.0257C81.3835 28.6804 80.9307 29.2083 80.3729 29.2083H59.6434C59.0845 29.2083 58.6328 28.6794 58.6328 28.0257V25.3658C58.6328 24.7111 59.0855 24.1833 59.6434 24.1833H80.3729C80.9307 24.1833 81.3835 24.7122 81.3835 25.3658V28.0257Z" stroke="#223FD5"/>
<path d="M70.0401 16.9469C71.7486 16.9469 73.1337 15.5621 73.1337 13.854C73.1337 12.1458 71.7486 10.761 70.0401 10.761C68.3315 10.761 66.9464 12.1458 66.9464 13.854C66.9464 15.5621 68.3315 16.9469 70.0401 16.9469Z" stroke="#223FD5"/>
<path d="M69.0501 273.661C74.7681 273.661 79.4035 269.045 79.4035 263.351C79.4035 257.656 74.7681 253.04 69.0501 253.04C63.3321 253.04 58.6967 257.656 58.6967 263.351C58.6967 269.045 63.3321 273.661 69.0501 273.661Z" stroke="#223FD5"/>
</svg>
