<svg width="283" height="283" viewBox="0 0 223 223" fill="none" xmlns="http://www.w3.org/2000/svg">
<path d="M78.0834 186.623L8.36249 208.076V35.5072L78.0165 14.0769L144.917 36.3769L214.637 14.9243V187.493L144.983 208.923L78.0834 186.623Z" fill="#ECF0F1"/>
<path d="M77.9831 17.0038L143.188 38.7407L144.883 39.3038L146.589 38.7797L211.85 18.6986V185.43L145.017 205.996L79.8117 184.259L78.1169 183.696L76.411 184.22L11.15 204.301V37.5699L77.9831 17.0038V17.0038ZM217.425 11.15L144.95 33.45L78.05 11.15L5.57501 33.45V211.85L78.05 189.55L144.95 211.85L217.425 189.55V11.15V11.15Z" fill="#2962FF"/>
<path d="M144.95 206.275L78.05 183.975V16.725L144.95 39.025V206.275Z" fill="white"/>
</svg>
