<svg width="99" height="142" viewBox="0 0 99 142" fill="none" xmlns="http://www.w3.org/2000/svg">
<path d="M49.4027 136.552C39.8424 125.587 3.52213 81.6503 3.52213 47.2957C3.52213 23.0564 24.0983 3.34143 49.3966 3.34143C74.6948 3.34143 95.271 23.0564 95.271 47.2957C95.271 81.9433 58.9751 125.64 49.4027 136.552V136.552Z" fill="#98CCFD"/>
<path d="M49.3966 6.2717C73.0067 6.2717 92.2127 24.6739 92.2127 47.2957C92.2127 78.5911 61.2934 117.968 49.4088 131.952C37.5304 117.916 6.58045 78.3508 6.58045 47.2957C6.58045 24.6739 25.7866 6.2717 49.3966 6.2717V6.2717ZM49.3966 0.411133C22.3735 0.411133 0.463867 21.4037 0.463867 47.2957C0.463867 88.2552 49.3966 141.065 49.3966 141.065C49.3966 141.065 98.3293 88.5775 98.3293 47.2957C98.3293 21.4037 76.4197 0.411133 49.3966 0.411133V0.411133Z" fill="#2962FF"/>
<path d="M49.4663 26.9302C37.643 26.9302 28.0583 36.1138 28.0583 47.4422C28.0583 58.7707 37.643 67.9542 49.4663 67.9542C61.2897 67.9542 70.8744 58.7707 70.8744 47.4422C70.8744 36.1138 61.2897 26.9302 49.4663 26.9302V26.9302Z" fill="white"/>
<path d="M49.4664 29.8606C59.6016 29.8606 67.8161 37.7313 67.8161 47.4423C67.8161 57.1532 59.6016 65.024 49.4664 65.024C39.3312 65.024 31.1166 57.1532 31.1166 47.4423C31.1166 37.7313 39.3312 29.8606 49.4664 29.8606ZM49.4664 24C35.9732 24 25 34.5139 25 47.4423C25 60.3707 35.9732 70.8845 49.4664 70.8845C62.9596 70.8845 73.9327 60.3707 73.9327 47.4423C73.9327 34.5139 62.9596 24 49.4664 24Z" fill="#2962FF"/>
</svg>
