<svg width="279" height="263" viewBox="0 0 279 263" fill="none" xmlns="http://www.w3.org/2000/svg">
<g clip-path="url(#clip0)">
<path d="M276.774 144.058C276.74 142.466 275.854 141.015 274.454 140.257L191.465 95.2876C189.312 94.121 186.621 94.9204 185.455 97.0732C184.288 99.2254 185.088 101.916 187.24 103.083L246.784 135.348L94.3186 100.171L80.7133 45.359L152.702 84.3679C154.856 85.5343 157.546 84.7349 158.713 82.5821C159.879 80.4298 159.08 77.7383 156.927 76.5719L76.1012 32.7744C74.5567 31.9377 72.664 32.0911 71.2747 33.1667C69.8855 34.2423 69.2624 36.036 69.6855 37.7406L85.934 103.2L56.1522 154.238C56.1215 154.291 56.0984 154.34 56.08 154.388C55.6451 155.203 55.4563 156.146 55.5927 157.099C55.678 157.695 55.8806 158.255 56.1789 158.752C56.7633 159.727 57.7135 160.461 58.8562 160.761L103.105 172.374L118.609 234.835C118.717 235.267 118.886 235.675 119.109 236.047C119.592 236.852 120.324 237.493 121.211 237.862C122.51 238.401 123.987 238.293 125.192 237.57L274.622 147.957C275.987 147.138 276.809 145.65 276.774 144.058ZM98.3487 129.214C97.4485 129.156 96.5518 129.372 95.778 129.836L72.5191 143.785L92.8554 108.934L213.579 136.788L98.3487 129.214ZM71.2948 154.858L95.1986 140.523L100.671 162.568L71.2948 154.858ZM125.771 226.883L103.823 138.461L256.486 148.494L125.771 226.883Z" fill="#769AFF"/>
<path d="M174.492 89.8764C174.775 88.745 174.594 87.5201 173.994 86.5201C173.394 85.5201 172.399 84.783 171.268 84.4999C170.137 84.2172 168.912 84.3983 167.908 85.0003C166.908 85.6 166.175 86.5928 165.892 87.7242C165.605 88.8578 165.79 90.0805 166.39 91.0805C166.989 92.0805 167.981 92.8198 169.116 93.1006C170.247 93.3833 171.468 93.2045 172.468 92.6048C173.472 92.0029 174.209 91.0077 174.492 89.8764Z" fill="#769AFF"/>
</g>
<defs>
<clipPath id="clip0">
<rect width="227" height="227" fill="white" transform="translate(161.677 -49) rotate(59.0489)"/>
</clipPath>
</defs>
</svg>
