<svg id="Layer_1" data-name="Layer 1" xmlns="http://www.w3.org/2000/svg" xmlns:xlink="http://www.w3.org/1999/xlink" viewBox="0 0 150 60.889"><defs><style>.cls-1{fill:#1a1819;}.cls-2{fill:url(#linear-gradient);}.cls-3{fill:blue;}.cls-4{fill:url(#linear-gradient-2);}</style><linearGradient id="linear-gradient" x1="39.148" y1="36.73" x2="38.683" y2="29.055" gradientUnits="userSpaceOnUse"><stop offset="0" stop-color="blue"/><stop offset="0.279" stop-color="#0000fc"/><stop offset="0.511" stop-color="#0000f1"/><stop offset="0.727" stop-color="#0000e0"/><stop offset="0.932" stop-color="#0001c8"/><stop offset="1" stop-color="#0001be"/></linearGradient><linearGradient id="linear-gradient-2" x1="132.53" y1="23.836" x2="132.902" y2="30.72" gradientUnits="userSpaceOnUse"><stop offset="0" stop-color="blue"/><stop offset="0.281" stop-color="#0000fc"/><stop offset="0.515" stop-color="#0000f1"/><stop offset="0.732" stop-color="#0000e0"/><stop offset="0.939" stop-color="#0000c8"/><stop offset="1" stop-color="#0000bf"/></linearGradient></defs><title>Logo</title><path class="cls-1" d="M30.688,18.715V1.157A1.2,1.2,0,0,0,29.532,0H24.356A1.2,1.2,0,0,0,23.2,1.157V26.263L30.347,19C30.466,18.907,30.57,18.8,30.688,18.715Z"/><path class="cls-1" d="M23.2,41.463a1.2,1.2,0,0,0,1.156,1.156h5.176a1.2,1.2,0,0,0,1.156-1.156v-.312l-7.488-8.5Z"/><path class="cls-2" d="M29.131,29.288l10.292,11.8.89,1.046a1.47,1.47,0,0,0,1.038.489H47.92a.991.991,0,0,0,.786-1.7L37.881,29.288l9.06-9.254a1.033,1.033,0,0,0-.786-1.764H40.609A2.259,2.259,0,0,0,39.1,19l-.668.668v.014"/><path class="cls-3" d="M37.881,29.288l9.06-9.254a1.033,1.033,0,0,0-.786-1.764H40.609A2.259,2.259,0,0,0,39.1,19l-.668.668-9.3,9.624Z"/><path class="cls-1" d="M.305,39.7,1.949,36.41a.922.922,0,0,1,1.4-.425A13.573,13.573,0,0,0,8.89,37.446c1.218,0,2.07-.487,2.07-1.522,0-1.1-.852-1.766-4.079-3.045C2.192,31.052,0,28.556,0,24.842s2.74-7.185,8.951-7.185a14,14,0,0,1,7.489,1.887,1.3,1.3,0,0,1,.549,1.644l-1.523,3.106a1.165,1.165,0,0,1-1.461.425,14.436,14.436,0,0,0-5.054-1.278c-1.461,0-2.07.609-2.07,1.4,0,1.1,1.1,1.461,3.349,2.374,4.688,1.827,8.22,3.836,8.22,8.586,0,4.019-3.532,7.429-9.681,7.429a13.78,13.78,0,0,1-8.1-2.254A1.045,1.045,0,0,1,.305,39.7Z"/><path class="cls-1" d="M50.479,19.848a1.075,1.075,0,0,1,1.035-1.583h5.48a1.1,1.1,0,0,1,1.035.67L64.179,32.7h.061l6.089-13.762c.305-.609.731-.67,1.462-.67h4.871A1.043,1.043,0,0,1,77.7,19.848L59.064,60.158a1.216,1.216,0,0,1-1.035.731H52.792a1.09,1.09,0,0,1-1.034-1.644L60.4,40.916Z"/><path class="cls-1" d="M81.229,19.422a1.156,1.156,0,0,1,1.157-1.157H84.7A1.062,1.062,0,0,1,85.735,19l.853,2.253a11.985,11.985,0,0,1,8.585-3.592c7.733,0,10.839,5.784,10.839,12.117V41.465a1.2,1.2,0,0,1-1.157,1.157H99.862a1.156,1.156,0,0,1-1.157-1.157V29.409c0-3.167-1.644-5.176-4.567-5.176a6.116,6.116,0,0,0-5.724,3.836v13.4c0,.853-.365,1.157-1.522,1.157H82.386a1.2,1.2,0,0,1-1.157-1.157Z"/><path class="cls-1" d="M112.284,5.417a4.158,4.158,0,0,1,4.14-4.2,4.2,4.2,0,1,1,0,8.4A4.159,4.159,0,0,1,112.284,5.417Zm.548,14.005a1.156,1.156,0,0,1,1.156-1.157h5.055a1.156,1.156,0,0,1,1.157,1.157V41.465a1.2,1.2,0,0,1-1.157,1.157h-5.055a1.2,1.2,0,0,1-1.156-1.157Z"/><path class="cls-4" d="M133.53,19.122c-.03-.029-.045-.074-.075-.1a2.091,2.091,0,0,0-1.927-.757h-5.057a1.066,1.066,0,0,0-.92,1.765L133.233,30.2l-7.919,10.662c-.549.786-.311,1.765.727,1.765h5.842a1.515,1.515,0,0,0,.979-.49l.3-.43,4.33-6.154,3.856-5.353-3.856-5.354Z"/><path class="cls-3" d="M133.233,30.2l-7.919,10.662c-.549.786-.311,1.765.727,1.765h5.842a1.515,1.515,0,0,0,.979-.49l.3-.43,4.33-6.154,3.856-5.353"/><path d="M149.918,19.062c-.007-.008-.013-.012-.019-.02a.931.931,0,0,0-1.021-.78h-6.227a.931.931,0,0,0-1.021.78c-.006.008-.012.012-.019.02l.012.016a1.325,1.325,0,0,0,.3.948l3.539,4.669.285.418.016-.021.015.021.285-.418,3.539-4.669a1.325,1.325,0,0,0,.3-.948Z"/><path d="M149.664,40.861l-3.95-5.483-.024-.033h0l-.023.033-3.95,5.483c-.549.786-.252,1.765.727,1.765h6.494C149.916,42.626,150.213,41.647,149.664,40.861Z"/></svg>